<svg width="52" height="45" viewBox="0 0 52 45" fill="none" xmlns="http://www.w3.org/2000/svg">
<path d="M12.8642 15.679C16.8049 17.5769 35.2262 17.1182 38.8854 15.2203C36.9067 14.6926 34.8779 14.3798 32.8336 14.2871C31.4575 14.2081 30.0657 14.2081 28.7678 14.0499C28.4863 14.0499 28.1423 14.0499 27.9859 13.7969C27.8295 13.5438 28.1892 13.2907 28.3143 13.0535C28.4394 12.8163 28.3143 13.0535 28.3925 13.0535C28.8368 12.2562 29.5261 11.6272 30.3557 11.2619C31.1854 10.8965 32.1102 10.8148 32.99 11.0291C35.8398 11.2691 38.6584 11.799 41.4031 12.6107C41.9917 12.742 42.5172 13.0751 42.8906 13.5537C43.264 14.0322 43.4622 14.6266 43.4516 15.2361C43.6445 17.2231 43.4362 19.229 42.8394 21.1321C42.2427 23.0352 41.2699 24.7959 39.9801 26.3073C39.8909 26.3818 39.8176 26.4738 39.7644 26.5777C39.7112 26.6815 39.6792 26.7952 39.6705 26.9118C39.6617 27.0285 39.6763 27.1457 39.7134 27.2565C39.7505 27.3673 39.8092 27.4695 39.8862 27.5568C40.2772 28.1261 40.5899 27.5568 40.8558 27.4302C42.6531 26.1436 43.9522 24.2649 44.5307 22.1161C44.7581 21.4135 45.131 20.7679 45.6244 20.2225C46.1179 19.6771 46.7206 19.2442 47.3924 18.9529C47.9247 18.6637 48.5285 18.5367 49.1307 18.5872C49.7329 18.6377 50.3078 18.8636 50.7858 19.2375C51.2175 19.624 51.5079 20.1464 51.61 20.7203C51.7122 21.2943 51.6201 21.8862 51.3487 22.4007C49.5504 27.7624 47.408 32.95 42.7949 36.5402C40.4849 38.32 38.0781 39.9675 35.5859 41.4748C34.1582 42.246 32.5913 42.7177 30.9791 42.8617C29.3668 43.0057 27.7424 42.8191 26.2032 42.3131C23.6386 41.6962 21.0584 41.0162 18.3843 40.6366C16.2623 40.2959 14.0908 40.4648 12.0453 41.1297C9.99978 41.7946 8.13756 42.9368 6.60911 44.464C6.07743 44.986 5.81158 44.8753 5.43628 44.3217C3.8725 42.1075 2.43383 39.909 0.916969 37.7264C0.750312 37.5506 0.620259 37.3428 0.534526 37.1152C0.448792 36.8876 0.409124 36.6449 0.417875 36.4015C0.426626 36.1581 0.483617 35.919 0.585467 35.6983C0.687318 35.4776 0.831954 35.2799 1.0108 35.1168C3.68424 31.7555 7.17639 29.1556 11.1441 27.5726C11.8478 27.3037 11.879 27.1455 11.4255 26.5762C8.906 23.4145 7.68538 19.3938 8.01651 15.3468C8.0165 14.9471 8.12996 14.5557 8.3434 14.2193C8.55685 13.8828 8.86132 13.6155 9.22061 13.4489C11.6394 12.2724 14.2337 11.5082 16.8988 11.1872C17.0443 11.2029 17.1911 11.2029 17.3366 11.1872C18.2935 10.8387 19.3406 10.8391 20.2972 11.1886C21.2537 11.538 22.0595 12.2144 22.5753 13.1009C22.7473 13.3224 23.0444 13.5122 22.8724 13.8601C22.7004 14.2081 22.4345 14.0499 22.1843 14.0657C19.2558 14.2463 16.3474 14.6749 13.4897 15.3468C13.2395 15.4259 12.9737 15.4101 12.8642 15.679Z" fill="black"/>
<path d="M25.1242 2.23536C25.4408 1.47495 26.0027 0.845343 26.7182 0.449033C27.4337 0.0527239 28.2609 -0.086948 29.0649 0.0527559C29.6544 0.179805 30.2042 0.450968 30.6662 0.842543C31.1282 1.23412 31.4883 1.73419 31.7151 2.29903C31.9419 2.86388 32.0284 3.47631 31.9672 4.0828C31.9059 4.68928 31.6987 5.27136 31.3636 5.77814C30.8439 6.57639 30.2635 7.33257 29.6278 8.03983C28.5019 9.46327 27.2509 10.7918 26.0937 12.1994C25.6246 12.7688 25.2649 12.753 24.7801 12.1994C23.2164 10.4122 21.4962 8.65665 19.8699 6.88526C19.2408 6.21813 18.7983 5.39395 18.5876 4.49705C18.3935 3.69312 18.4824 2.8459 18.8392 2.10115C19.196 1.3564 19.7982 0.760697 20.5423 0.416524C21.2908 0.0577168 22.1454 -0.00320855 22.9363 0.245849C23.7272 0.494906 24.3966 1.03572 24.8114 1.76088L25.1242 2.23536Z" fill="#C5382F"/>
<path d="M41.7315 9.33675C37.7126 9.46328 35.2418 6.44242 35.8204 1.90324C35.8204 1.33386 36.1645 0.98591 36.7431 1.09662C38.4059 1.26455 40.0022 1.84455 41.3905 2.78527C42.7789 3.72599 43.9165 4.99841 44.7027 6.48987C44.7809 6.66385 44.859 6.82201 44.9216 6.99598C45.5158 8.57758 45.2969 8.9888 43.5767 9.1944C42.9669 9.25767 42.357 9.2893 41.7315 9.33675Z" fill="black"/>
<path d="M8.54819 10.1908C5.6083 10.1908 5.2799 9.73216 6.49965 7.02763C7.18886 5.63798 8.17982 4.42392 9.39842 3.47628C10.617 2.52864 12.0317 1.87194 13.5366 1.5553C14.2091 1.34969 14.4436 1.71346 14.5687 2.29865C15.4288 6.45825 13.6617 10.2857 8.54819 10.1908Z" fill="black"/>
<path d="M5.27989 19.3957C5.27989 21.1987 4.77948 21.9105 3.43464 21.7839C3.29047 21.8166 3.14094 21.8166 2.99678 21.7839C1.91777 21.088 2.02724 19.9335 1.91777 18.9529C1.80831 17.9723 1.83959 17.2447 2.80913 16.8019C3.01504 16.6916 3.24274 16.6292 3.47556 16.6193C3.70839 16.6094 3.94046 16.6522 4.15481 16.7447C4.36915 16.8372 4.56035 16.9769 4.71443 17.1537C4.8685 17.3306 4.98156 17.54 5.04532 17.7667C5.16184 18.3033 5.24023 18.8477 5.27989 19.3957Z" fill="black"/>
<path d="M6.46829 24.9313C6.47677 25.1048 6.45028 25.2782 6.39043 25.441C6.33059 25.6038 6.23863 25.7526 6.12016 25.8784C6.00168 26.0041 5.85916 26.1042 5.70126 26.1725C5.54335 26.2408 5.37337 26.2759 5.20163 26.2757C5.02206 26.2867 4.84218 26.2599 4.67341 26.1968C4.50465 26.1338 4.35068 26.036 4.22128 25.9096C4.09188 25.7831 3.98988 25.6309 3.92175 25.4625C3.85362 25.2941 3.82084 25.1132 3.82551 24.9313C3.83156 24.7631 3.87034 24.5976 3.93965 24.4445C4.00896 24.2914 4.10743 24.1537 4.22943 24.0391C4.35143 23.9245 4.49457 23.8354 4.65065 23.7768C4.80674 23.7182 4.97271 23.6913 5.13908 23.6977C5.30673 23.6892 5.47438 23.7145 5.63227 23.7721C5.79017 23.8297 5.93517 23.9185 6.05885 24.0333C6.18253 24.1481 6.28242 24.2866 6.3527 24.4407C6.42299 24.5949 6.46228 24.7617 6.46829 24.9313Z" fill="black"/>
<path d="M49.4878 15.6157C49.4944 15.7899 49.4653 15.9635 49.4024 16.1258C49.3395 16.2881 49.2442 16.4355 49.1223 16.5587C49.0005 16.682 48.8547 16.7785 48.6943 16.8421C48.5338 16.9057 48.3621 16.9351 48.1899 16.9284C48.0274 16.9511 47.862 16.9382 47.7049 16.8904C47.5478 16.8427 47.4027 16.7613 47.2795 16.6517C47.1564 16.5421 47.058 16.407 46.9911 16.2555C46.9242 16.104 46.8904 15.9397 46.8919 15.7738C46.8726 15.5922 46.89 15.4085 46.9432 15.2339C46.9964 15.0592 47.0842 14.8974 47.2012 14.7583C47.3183 14.6192 47.4622 14.5056 47.6241 14.4246C47.786 14.3436 47.9626 14.2968 48.143 14.2871C48.9718 14.303 49.3784 14.7933 49.4878 15.6157Z" fill="black"/>
<path d="M4.68564 35.9076C6.82512 33.1501 9.71292 31.083 12.9957 29.9595C16.2785 28.8359 19.814 28.7044 23.1695 29.5812C25.0929 30.1031 27.0007 30.6409 28.9554 31.0363C30.0358 31.2712 31.1534 31.2686 32.2326 31.0284C33.3119 30.7883 34.3274 30.3163 35.2105 29.6445C35.3454 29.5211 35.4984 29.4197 35.664 29.344C36.1175 29.1542 36.5241 28.3476 37.0401 28.9802C37.149 29.12 37.2293 29.2802 37.2765 29.4516C37.3236 29.623 37.3367 29.8022 37.3148 29.9787C37.293 30.1552 37.2368 30.3257 37.1493 30.48C37.0619 30.6344 36.9451 30.7697 36.8056 30.8781C35.8757 31.8635 34.7588 32.6488 33.5217 33.1872C32.1366 33.7726 30.604 33.8999 29.1431 33.551C27.7044 33.2189 26.2345 32.9658 24.7801 32.6811C23.623 32.4439 22.9505 32.6811 22.7942 33.6143C22.6378 34.5474 23.3258 35.0219 24.1703 35.1959C26.2657 35.7816 28.4047 36.1941 30.5661 36.4295C32.0593 36.5631 33.5624 36.3359 34.9517 35.7667C36.341 35.1975 37.5767 34.3025 38.557 33.1556C39.817 31.6388 41.2265 30.2556 42.7636 29.0276C44.4315 27.4318 45.6924 25.451 46.4384 23.2548C46.5682 22.852 46.7946 22.488 47.0976 22.1955C47.4005 21.9029 47.7704 21.6908 48.1742 21.5783C48.659 21.4676 48.8936 21.5783 48.6903 22.1319C46.6886 27.3195 44.6401 32.4597 39.5891 35.5438C37.8846 36.4928 36.3208 37.6474 34.757 38.7703C33.8648 39.4211 32.8422 39.866 31.7614 40.0737C30.6807 40.2814 29.568 40.2468 28.5019 39.9723C25.2962 39.229 22.0748 38.5014 18.8378 37.8688C15.8211 37.3128 12.7115 37.6026 9.8461 38.707C9.61154 38.8019 9.39261 39.0075 9.04858 38.8177C11.1441 37.1981 13.6714 36.2506 16.3045 36.0974C17.6809 35.9814 19.0659 36.0239 20.4329 36.2239C21.0896 36.3188 21.6995 36.2239 21.9966 35.4964C22.0571 35.3391 22.0836 35.1706 22.0746 35.0022C22.0655 34.8337 22.021 34.6691 21.944 34.5194C21.8671 34.3697 21.7594 34.2384 21.6283 34.1341C21.4971 34.0298 21.3455 33.9551 21.1835 33.9148C19.0386 33.0554 16.7279 32.7037 14.428 32.8867C10.991 33.0469 7.68218 34.2542 4.93585 36.3504C4.57618 36.3504 4.49799 36.2081 4.68564 35.9076Z" fill="#FDFDFD"/>
<path d="M18.0558 26.1175C15.4131 27.0348 13.99 25.1685 12.7234 22.9543C12.2158 22.0253 11.8369 21.0301 11.5974 19.9967C11.3785 19.1743 11.5974 18.9687 12.4419 19.0635C14.5999 19.3166 16.7579 19.6329 18.9159 19.8069C25.6103 20.341 32.3451 19.9847 38.9479 18.7472C40.0112 18.5574 40.0112 18.8896 39.7767 19.7278C39.2083 21.6897 38.1811 23.4844 36.7821 24.9599C35.383 26.4355 33.6532 27.5486 31.7389 28.2052C30.3587 28.5706 28.8965 28.4478 27.5949 27.8572C24.8494 26.9334 22.0035 26.3493 19.1192 26.1175H18.0558Z" fill="#FEFEFE"/>
<path d="M4.6856 35.9076C4.68129 35.9979 4.70254 36.0875 4.74687 36.1659C4.79119 36.2444 4.85674 36.3084 4.93581 36.3505C4.66996 36.6668 4.41976 37.0306 3.79425 36.9198L4.6856 35.9076Z" fill="#CBD0D2"/>
<path d="M42.2318 6.9169C41.4126 7.16405 40.5306 7.08155 39.7701 6.68664C39.0095 6.29172 38.4292 5.61492 38.1504 4.79756C38.1504 4.59195 37.9627 4.37053 38.1504 4.19655C38.338 4.02258 38.4944 4.19655 38.6508 4.19655C40.0614 4.76691 41.2971 5.70564 42.2318 6.9169Z" fill="#F8F8F8"/>
<path d="M8.78271 7.77097C9.47849 6.47792 10.5783 5.45453 11.9103 4.86083C12.567 4.49706 12.5358 4.98736 12.4889 5.41439C12.4082 5.8205 12.2467 6.20577 12.0142 6.54673C11.7816 6.8877 11.4829 7.17723 11.1362 7.3977C10.7895 7.61816 10.402 7.76495 9.99741 7.82912C9.5928 7.89329 9.17952 7.87351 8.78271 7.77097Z" fill="#F5F6F6"/>
</svg>
