<svg width="188" height="139" viewBox="0 0 188 139" fill="none" xmlns="http://www.w3.org/2000/svg">
<g clip-path="url(#clip0_141_1870)">
<path opacity="0.1" d="M2.02344 66.6416C4.99207 78.1414 11.2712 88.0823 21.194 92.9012C41.8223 102.916 88.3446 97.7509 123.066 91.822C141.026 88.7556 156.813 80.293 168.281 68.3838L2.02344 66.6416Z" fill="#D2D2D2"/>
<path opacity="0.1" d="M184.1 12.5108H165.049C164.145 12.5108 163.403 11.8392 163.403 11.0187C163.403 10.1981 164.145 9.5249 165.049 9.5249H168.344C167.438 9.5249 166.698 8.85337 166.698 8.0311C166.698 7.20883 167.438 6.53902 168.344 6.53902H165.992C165.087 6.53902 164.345 5.8675 164.345 5.04522C164.345 4.22295 165.087 3.55314 165.992 3.55314H175.936C173.729 2.62295 171.15 1.9617 168.178 1.61395C141.064 -1.54323 131.384 0.544997 127.969 2.69147C123.713 5.40025 118.985 7.27981 114.034 8.23153C97.3053 11.3613 66.0209 15.1266 37.6659 7.03238C23.573 3.00153 13.0982 9.80413 6.8208 21.1755H187.409C187.173 17.871 186.467 14.8183 185.171 12.1476C184.865 12.385 184.487 12.5129 184.1 12.5108Z" fill="#D2D2D2"/>
<path opacity="0.1" d="M0.408525 42.6382C-0.323216 49.3263 -0.0744757 56.0857 1.14684 62.7016L168.409 68.2503C173.013 63.4637 176.925 58.0537 180.031 52.1783L0.408525 42.6382ZM66.5628 56.9509H63.2695C64.1753 56.9509 64.917 57.6241 64.917 58.4447C64.917 59.2652 64.1753 59.9367 63.2695 59.9367H44.2186C43.3145 59.9367 42.5727 59.2652 42.5727 58.4447C42.5727 57.6241 43.3145 56.9509 44.2186 56.9509H47.5136C46.6078 56.9509 45.8678 56.2793 45.8678 55.4588C45.8678 54.6382 46.6078 53.965 47.5136 53.965H45.1603C44.2545 53.965 43.5127 53.2935 43.5127 52.4729C43.5127 51.6523 44.2545 50.9791 45.1603 50.9791H64.2111C65.117 50.9791 65.857 51.6506 65.857 52.4729C65.857 53.2952 65.117 53.965 64.2111 53.965H66.5628C67.4686 53.965 68.2086 54.6365 68.2086 55.4588C68.2086 56.2811 67.4686 56.9509 66.5628 56.9509Z" fill="#D2D2D2"/>
<path opacity="0.1" d="M187.415 21.2778L4.80586 25.3035C2.58408 30.4821 1.11087 36.3374 0.432373 42.4051H184.216C185.412 38.8551 186.3 35.2081 186.869 31.5048C187.417 27.94 187.636 24.4915 187.415 21.2778ZM37.5087 34.477H34.2154C35.1212 34.477 35.8629 35.1503 35.8629 35.9708C35.8629 36.7914 35.1212 37.4646 34.2154 37.4646H15.1645C14.2604 37.4646 13.5186 36.7914 13.5186 35.9708C13.5186 35.1503 14.2604 34.477 15.1645 34.477H18.4595C17.5537 34.477 16.8137 33.8055 16.8137 32.9849C16.8137 32.1644 17.5537 31.4911 18.4595 31.4911H16.1062C15.2004 31.4911 14.4586 30.8196 14.4586 29.9991C14.4586 29.1785 15.2004 28.5053 16.1062 28.5053H35.1571C36.0629 28.5053 36.8029 29.1768 36.8029 29.9991C36.8029 30.8213 36.0629 31.4911 35.1571 31.4911H37.5087C38.4145 31.4911 39.1545 32.1644 39.1545 32.9849C39.1545 33.8055 38.4145 34.477 37.5087 34.477Z" fill="#D2D2D2"/>
<path opacity="0.1" d="M93.1574 133.804C135.347 133.804 169.549 130.65 169.549 126.76C169.549 122.87 135.347 119.716 93.1574 119.716C50.9675 119.716 16.7659 122.87 16.7659 126.76C16.7659 130.65 50.9675 133.804 93.1574 133.804Z" fill="#D2D2D2"/>
<path d="M171.015 68.5774C171.014 68.5654 171.014 68.5534 171.015 68.5414C171.015 68.5226 171.015 68.5055 171.015 68.4883C170.981 68.2921 170.907 68.105 170.798 67.9384C170.407 67.311 169.862 66.7943 169.216 66.4378C168.088 65.8177 166.538 65.5521 166.086 64.3684C165.948 64.0018 165.945 63.6027 165.876 63.2189C165.757 62.6211 165.482 62.0653 165.08 61.6073C164.679 61.1494 164.164 60.8054 163.588 60.6099C163.051 60.4301 162.472 60.3804 161.95 60.1577C160.785 59.6609 160.17 58.436 159.648 57.3037C158.974 55.8419 158.299 54.3795 157.625 52.9165C157.112 53.1752 156.449 53.0536 155.969 52.7298C155.506 52.3845 155.137 51.9279 154.897 51.4022C154.202 50.0489 153.903 48.5157 153.086 47.2274C152.269 45.9392 150.636 44.9217 149.194 45.4818C148.912 45.6229 148.621 45.7437 148.322 45.8433C147.087 46.1328 145.72 44.7178 144.662 45.4047C144.486 45.5177 144.343 45.6748 144.246 45.8604C144.245 45.849 144.245 45.8376 144.246 45.8262C144.109 46.1048 144.032 46.4096 144.021 46.7204C144.021 46.7838 144.021 46.8454 144.021 46.9054C144.021 46.9157 144.021 46.9259 144.021 46.9362C144.021 47.1829 144.036 47.433 144.04 47.6831C144.043 47.8932 144.027 48.1031 143.992 48.3101V48.293C143.972 48.4095 143.942 48.5241 143.903 48.6356C143.628 49.3756 142.865 49.8604 142.508 50.5559V50.5217C142.468 50.5973 142.433 50.6758 142.404 50.7564C142.34 50.9387 142.308 51.1303 142.307 51.3234C142.276 52.6305 143.658 53.8604 143.819 55.2634C143.934 56.257 144.161 56.5757 145.003 57.1375L145.188 57.2609C145.115 57.2609 145.039 57.2712 144.956 57.2729C144.923 57.2735 144.89 57.2769 144.858 57.2831C144.709 57.2421 144.554 57.2347 144.402 57.2613C144.25 57.288 144.106 57.3481 143.98 57.4373C143.334 57.9512 141.806 57.5555 141.127 57.4373C140.449 57.3191 138.124 57.6378 137.8 58.9294C137.475 60.2211 136.918 62.8866 136.918 62.8866C136.918 62.8866 136.918 64.5774 136.711 64.8926C136.703 64.9147 136.703 64.939 136.711 64.9611C136.711 65.4356 136.728 68.2879 136.27 69.0228C136.157 69.1941 136.166 69.5727 136.25 70.0387C135.768 70.6605 135.315 71.3868 135.395 71.8631C135.542 72.8378 137.514 75.9025 140.341 74.2614C140.341 74.2614 141.949 71.3132 139.926 69.7457L140.013 69.4031C140.625 70.1569 141.078 70.6982 141.078 70.6982C141.078 70.6982 141.102 70.7616 141.139 70.8695H141.078C141.342 71.5899 141.502 72.3444 141.553 73.1102C141.545 73.3909 141.494 73.6689 141.402 73.9342H141.455C141.44 73.9924 141.423 74.0507 141.402 74.1055C141.303 74.3948 141.118 74.6465 140.871 74.8267C139.458 75.8305 137.839 82.9997 137.839 82.9997C137.839 82.9997 134.633 94.5886 133.992 95.2481C133.462 95.7895 136.791 97.3141 139.29 97.1325C139.639 97.1117 139.983 97.0461 140.315 96.9372C140.331 97.1085 140.348 97.2799 140.365 97.4357C140.418 97.9497 140.473 98.4259 140.507 98.5749C140.596 98.9484 140.772 102.762 140.772 102.762C140.772 102.762 140.411 105.239 140.498 106.962C140.498 107.08 140.514 107.193 140.524 107.305L140.213 107.353C139.741 108.415 141.684 117.276 141.949 118.022C142.125 118.609 142.224 119.216 142.243 119.829C142.243 119.829 142.072 120.459 142.214 120.804C142.303 121.014 142.36 121.236 142.385 121.463C142.385 121.463 142.269 122.035 142.445 122.409C142.621 122.782 142.416 123.437 142.416 123.437C142.416 123.437 142.358 126.018 141.828 127.423C141.684 127.801 141.642 128.211 141.706 128.61C141.771 129.01 141.94 129.385 142.195 129.698C142.232 129.747 142.272 129.793 142.315 129.837C142.315 129.837 145.238 129.861 145.752 129.837H145.819C146.025 129.808 146.555 127.485 146.084 126.366C145.612 125.247 146.025 123.87 146.025 123.87V121.835C146.025 121.835 146.555 121.345 146.025 120.293C145.496 119.241 145.583 118.923 145.583 118.923C145.583 118.923 146.172 117.23 145.554 116.685C144.935 116.141 145.672 114.075 145.672 114.075L145.88 107.188C145.771 107.153 145.66 107.124 145.547 107.103C145.535 106.99 145.523 106.873 145.511 106.75C145.39 105.503 145.285 103.807 145.555 103.324C145.825 102.84 145.955 98.6229 145.998 95.6918L148.692 95.7946C148.748 97.1651 148.808 98.4156 148.845 98.5749C148.934 98.9484 149.112 102.762 149.112 102.762C149.112 102.762 148.75 105.239 148.837 106.962C148.837 107.08 148.852 107.193 148.862 107.305L148.551 107.353C148.08 108.415 150.023 117.276 150.288 118.022C150.463 118.609 150.563 119.216 150.584 119.829C150.584 119.829 150.413 120.459 150.553 120.804C150.641 121.014 150.699 121.236 150.724 121.463C150.724 121.463 150.607 122.035 150.783 122.409C150.96 122.782 150.754 123.437 150.754 123.437C150.754 123.437 150.696 126.018 150.167 127.423C150.025 127.802 149.985 128.211 150.051 128.61C150.118 129.009 150.289 129.383 150.546 129.695C150.583 129.743 150.623 129.79 150.666 129.833C150.666 129.833 153.588 129.857 154.102 129.833H154.169C154.376 129.804 154.906 127.481 154.434 126.363C153.962 125.244 154.376 123.867 154.376 123.867V121.835C154.376 121.835 154.906 121.345 154.376 120.293C153.846 119.241 153.933 118.923 153.933 118.923C153.933 118.923 154.523 117.23 153.904 116.685C153.286 116.141 154.022 114.075 154.022 114.075L154.234 107.188C154.122 107.152 154.008 107.123 153.892 107.103C153.88 106.99 153.868 106.873 153.856 106.75C153.735 105.503 153.631 103.807 153.901 103.324C154.118 102.928 154.243 100.379 154.299 97.8897C154.299 97.7184 154.299 97.5471 154.313 97.3758C155.55 97.3241 156.783 97.1856 158.001 96.9612C158.001 96.9612 156.56 91.8546 157.001 91.0237C157.191 90.6657 156.917 88.7591 156.543 86.7051C157.065 87.1286 157.714 87.3639 158.385 87.3732C159.03 88.6152 160.99 91.4726 162.094 91.9128C163.389 92.4267 162.417 87.87 161.8 87.2104C161.508 86.8503 161.262 86.455 161.069 86.0336C161.086 86.013 161.104 85.9959 161.122 85.977C161.139 85.9582 161.152 81.1291 160.857 81.2164C160.561 81.3038 160.209 80.4986 160.209 80.4986L159.296 72.4695L158.913 69.1085C159.233 69.3449 159.612 69.4956 159.939 69.7303C160.828 70.383 161.118 71.529 161.508 72.5432C161.829 73.3774 162.28 74.2048 163.02 74.729C163.76 75.2532 164.846 75.392 165.584 74.8609C166.268 74.3624 166.469 73.4631 166.62 72.6425C167.86 73.0793 169.366 71.911 169.205 70.6348C169.166 70.3196 169.05 69.9753 169.214 69.6995C169.542 69.1547 170.581 69.4716 170.923 68.9337C170.981 68.8407 171.01 68.7331 171.008 68.6237C171.014 68.5997 171.015 68.5894 171.015 68.5774ZM154.419 72.9937C154.4 73.3003 154.82 75.7637 155.162 77.7132C154.882 76.4986 154.32 75.2018 153.212 74.3128C153.212 74.3128 153.212 74.2511 153.198 74.1414H153.212C153.212 74.1414 153.166 73.6515 153.159 72.9543C153.161 72.3363 153.207 71.7192 153.296 71.1076V71.0922H153.274C153.274 71.0408 153.287 70.9877 153.296 70.9363C153.364 70.4202 153.504 69.9162 153.711 69.4391C153.803 69.2521 153.909 69.0723 154.027 68.9012C154.21 70.5577 154.436 72.6836 154.419 72.9937ZM155.338 78.7016C155.489 79.5427 155.596 80.1338 155.596 80.1338L156.504 86.3796V86.4087C156.015 83.7723 155.391 80.9937 155.391 80.9937C155.455 80.23 155.437 79.4616 155.338 78.7016Z" fill="url(#paint0_linear_141_1870)"/>
<path d="M144.216 55.6063C144.045 54.0234 142.336 52.6581 142.848 51.1523C143.127 50.3318 143.998 49.8298 144.292 49.0144C144.487 48.4765 144.4 47.8855 144.402 47.3133C144.404 46.7412 144.537 46.1022 145.012 45.7853C146.037 45.1001 147.357 46.5099 148.553 46.2221C148.842 46.123 149.124 46.0027 149.396 45.8624C150.792 45.3056 152.371 46.3198 153.156 47.6011C153.94 48.8825 154.234 50.4106 154.907 51.757C155.137 52.277 155.493 52.731 155.943 53.0778C156.408 53.3999 157.044 53.5215 157.546 53.2645L159.503 57.6329C160.016 58.7583 160.604 59.978 161.725 60.4731C162.227 60.6941 162.788 60.7438 163.307 60.9237C163.872 61.1233 164.375 61.4681 164.764 61.9236C165.154 62.3791 165.418 62.9292 165.529 63.519C165.596 63.9027 165.598 64.3001 165.733 64.665C166.168 65.8436 167.667 66.1074 168.759 66.7207C169.391 67.0778 169.921 67.5915 170.297 68.2128C170.468 68.5091 170.615 68.898 170.432 69.1892C170.103 69.7237 169.099 69.4085 168.782 69.9515C168.621 70.2256 168.734 70.5682 168.782 70.8834C168.937 72.1528 167.479 73.316 166.279 72.8809C166.134 73.698 165.938 74.5939 165.278 75.089C164.569 75.6201 163.518 75.4796 162.802 74.9588C162.085 74.438 161.651 73.6141 161.34 72.7832C160.963 71.7725 160.681 70.6316 159.821 69.9824C159.51 69.7494 159.137 69.5986 158.833 69.3639C158.149 68.8397 157.808 67.9746 157.563 67.137C157.247 66.092 156.996 65.0179 156.538 64.0312C156.08 63.0444 155.355 62.1262 154.362 61.6757C153.431 61.256 152.357 61.2834 151.395 60.9425C149.739 60.3566 148.514 58.9605 146.866 58.3027C146.34 58.0808 145.841 57.7979 145.379 57.4598C144.55 56.9134 144.325 56.5965 144.216 55.6063Z" fill="#3F3D56"/>
<g opacity="0.1">
<path d="M144.369 48.6788C144.405 48.6118 144.435 48.5425 144.462 48.4715C144.655 47.9336 144.569 47.3426 144.571 46.7704C144.571 46.5796 144.589 46.3892 144.624 46.2017C144.466 46.5401 144.39 46.9109 144.4 47.2843C144.398 47.7451 144.453 48.2282 144.369 48.6788Z" fill="black"/>
<path d="M165.439 74.551C164.729 75.0804 163.678 74.9416 162.962 74.4191C162.246 73.8966 161.81 73.0761 161.508 72.2418C161.13 71.2311 160.85 70.0902 159.988 69.441C159.679 69.208 159.305 69.0555 159.002 68.8225C158.319 68.2983 157.977 67.4332 157.731 66.6041C157.415 65.5591 157.165 64.485 156.705 63.4983C156.246 62.5116 155.524 61.5934 154.53 61.1429C153.6 60.7232 152.527 60.7506 151.564 60.4097C149.907 59.8238 148.681 58.4276 147.035 57.7698C146.509 57.5473 146.009 57.2644 145.547 56.927C144.737 56.3668 144.521 56.0499 144.402 55.0615C144.231 53.5779 142.727 52.2846 142.961 50.8867C142.923 50.9623 142.889 51.0401 142.86 51.1197C142.348 52.6272 144.057 53.9925 144.227 55.5737C144.339 56.5621 144.569 56.879 145.373 57.4392C145.835 57.7767 146.334 58.0595 146.861 58.282C148.507 58.9399 149.732 60.3377 151.39 60.9219C152.352 61.2645 153.426 61.2354 154.355 61.6551C155.35 62.1056 156.064 63.0255 156.531 64.0105C156.998 64.9955 157.247 66.0662 157.556 67.1163C157.808 67.9454 158.138 68.8105 158.828 69.3347C159.137 69.5677 159.512 69.7202 159.814 69.9532C160.669 70.6024 160.956 71.7433 161.333 72.754C161.644 73.5849 162.08 74.4071 162.796 74.9279C163.512 75.4487 164.564 75.5892 165.273 75.0598C165.726 74.7172 165.956 74.1947 166.109 73.6345C165.973 73.9958 165.742 74.3129 165.439 74.551Z" fill="black"/>
<path d="M168.951 69.4137C168.885 69.5365 168.857 69.6758 168.869 69.8145C169.255 69.4325 170.126 69.6569 170.431 69.1653C170.501 69.0438 170.529 68.9019 170.509 68.7627C170.113 69.1396 169.241 68.9152 168.951 69.4137Z" fill="black"/>
<path d="M166.44 72.3431C166.408 72.5144 166.375 72.6977 166.334 72.8758C167.38 73.203 168.588 72.3619 168.759 71.2998C168.344 72.1169 167.319 72.6634 166.44 72.3431Z" fill="black"/>
</g>
<path d="M146.424 56.4303C146.424 56.4303 146.993 57.5815 145.313 57.6054C143.633 57.6294 146.395 65.0813 146.395 65.0813L149.187 68.6445L152.662 66.7601L152.862 61.5626L153.118 58.4226C153.118 58.4226 149.871 57.3656 150.469 55.9678C151.067 54.5699 146.424 56.4303 146.424 56.4303Z" fill="#FBBEBE"/>
<path d="M156.509 86.8131C156.509 86.8131 158.56 88.8363 160.952 86.1519L159.115 84.1973H156.791L156.509 86.8131Z" fill="#575A89"/>
<path opacity="0.1" d="M156.731 84.1973L156.449 86.8131C156.449 86.8131 158.5 88.8363 160.893 86.1519" fill="black"/>
<path d="M160.182 84.5537C160.182 84.5537 161.007 86.7242 161.605 87.3803C162.204 88.0364 163.144 92.576 161.891 92.0621C160.638 91.5482 158.245 87.7229 158.102 87.0668C157.958 86.4107 157.904 84.5537 157.904 84.5537H160.182Z" fill="#FBBEBE"/>
<path d="M142.266 95.6886L153.316 96.1169L152.035 91.4334L146.468 91.3203L142.266 95.6886Z" fill="#575A89"/>
<path opacity="0.1" d="M143.802 95.6886L154.854 96.1169L153.573 91.4334L148.005 91.3203L143.802 95.6886Z" fill="black"/>
<path d="M145.882 103.419C145.62 103.908 145.721 105.597 145.839 106.846C145.914 107.64 145.996 108.252 145.996 108.252C145.996 108.252 141.866 109.537 141.24 108.423C141.081 108.141 141.002 107.646 140.975 107.065C140.89 105.352 141.24 102.883 141.24 102.883C141.24 102.883 141.069 99.0871 140.984 98.7153C140.949 98.5663 140.896 98.0935 140.845 97.5813C140.77 96.8207 140.698 95.9744 140.698 95.9744L146.338 92.9766C146.338 92.9766 146.338 93.5385 146.328 94.4036C146.297 97.1205 146.207 102.82 145.882 103.419Z" fill="#FBBEBE"/>
<path opacity="0.1" d="M145.996 108.252C145.996 108.252 141.866 109.537 141.24 108.424C141.081 108.141 141.002 107.646 140.975 107.065C141.83 106.935 144.431 106.575 145.839 106.846C145.914 107.641 145.996 108.252 145.996 108.252Z" fill="black"/>
<path d="M146.138 129.837H146.073C145.576 129.856 142.749 129.837 142.749 129.837C142.708 129.794 142.669 129.748 142.633 129.7C142.383 129.386 142.218 129.014 142.154 128.618C142.089 128.221 142.128 127.815 142.265 127.439C142.778 126.039 142.835 123.469 142.835 123.469C142.835 123.469 143.035 122.813 142.864 122.442C142.693 122.07 142.806 121.499 142.806 121.499C142.779 121.274 142.722 121.053 142.635 120.843C142.493 120.501 142.664 119.872 142.664 119.872C142.644 119.263 142.548 118.659 142.378 118.073C142.122 117.332 140.242 108.509 140.698 107.452C140.698 107.452 144.686 106.767 146.196 107.281L145.996 114.133C145.996 114.133 145.284 116.189 145.882 116.732C146.48 117.275 145.911 118.959 145.911 118.959C145.911 118.959 145.825 119.272 146.338 120.329C146.851 121.386 146.338 121.871 146.338 121.871V123.898C146.338 123.898 145.94 125.268 146.395 126.382C146.849 127.495 146.338 129.801 146.138 129.837Z" fill="#3F3D56"/>
<path d="M153.964 103.42C153.703 103.908 153.803 105.597 153.921 106.846C153.997 107.641 154.079 108.252 154.079 108.252C154.079 108.252 149.948 109.537 149.322 108.423C149.163 108.141 149.085 107.646 149.057 107.065C148.972 105.352 149.322 102.883 149.322 102.883C149.322 102.883 149.151 99.0872 149.066 98.7155C149.02 98.515 148.939 96.6033 148.876 94.8885C148.823 93.4255 148.781 92.103 148.781 92.103L154.42 92.9767C154.42 92.9767 154.42 95.4624 154.35 98.0165C154.289 100.494 154.174 103.032 153.964 103.42Z" fill="#FBBEBE"/>
<path opacity="0.1" d="M154.079 108.252C154.079 108.252 149.948 109.537 149.322 108.424C149.163 108.141 149.085 107.646 149.057 107.065C149.912 106.935 152.513 106.575 153.921 106.846C153.997 107.641 154.079 108.252 154.079 108.252Z" fill="black"/>
<path d="M154.22 129.837H154.156C153.658 129.856 150.831 129.837 150.831 129.837C150.79 129.794 150.751 129.748 150.715 129.7C150.465 129.386 150.3 129.014 150.236 128.618C150.172 128.221 150.21 127.815 150.348 127.439C150.86 126.032 150.912 123.463 150.912 123.463C150.912 123.463 151.112 122.807 150.941 122.435C150.77 122.063 150.883 121.493 150.883 121.493C150.856 121.267 150.799 121.046 150.712 120.836C150.57 120.494 150.741 119.865 150.741 119.865C150.721 119.256 150.625 118.652 150.455 118.066C150.199 117.325 148.319 108.502 148.775 107.445C148.775 107.445 152.763 106.76 154.273 107.274L154.074 114.126C154.074 114.126 153.361 116.182 153.959 116.725C154.557 117.268 153.988 118.952 153.988 118.952C153.988 118.952 153.903 119.266 154.415 120.323C154.928 121.38 154.415 121.864 154.415 121.864V123.891C154.415 123.891 154.017 125.261 154.472 126.375C154.926 127.488 154.42 129.801 154.22 129.837Z" fill="#3F3D56"/>
<path opacity="0.1" d="M148.645 57.7765C150.864 57.7765 152.662 55.9741 152.662 53.7508C152.662 51.5275 150.864 49.7251 148.645 49.7251C146.427 49.7251 144.629 51.5275 144.629 53.7508C144.629 55.9741 146.427 57.7765 148.645 57.7765Z" fill="black"/>
<path d="M148.645 57.6051C150.864 57.6051 152.662 55.8028 152.662 53.5794C152.662 51.3561 150.864 49.5537 148.645 49.5537C146.427 49.5537 144.629 51.3561 144.629 53.5794C144.629 55.8028 146.427 57.6051 148.645 57.6051Z" fill="#FBBEBE"/>
<path opacity="0.1" d="M140.698 95.9744L146.338 92.9766C146.338 92.9766 146.338 93.5385 146.328 94.4036C145.504 94.8969 144.262 95.6387 143.067 96.3393C142.418 96.7213 141.783 97.0914 141.24 97.4014C141.114 97.4701 140.982 97.5275 140.845 97.5727C140.77 96.8207 140.698 95.9744 140.698 95.9744Z" fill="black"/>
<path opacity="0.1" d="M154.42 92.9699C154.42 92.9699 154.42 95.4555 154.35 98.0097H154.33C153.908 98.0247 153.486 98.0116 153.067 97.9703C152.33 97.8915 151.741 97.6962 151.529 97.3091C151.1 96.5553 149.898 95.596 148.883 94.8816C148.83 93.4187 148.787 92.0962 148.787 92.0962L154.42 92.9699Z" fill="black"/>
<path d="M153.371 71.1986C153.228 72.3137 153.201 73.4406 153.289 74.5614C155.88 76.7027 155.396 81.2132 155.396 81.2132C155.396 81.2132 157.391 90.3507 156.964 91.1781C156.536 92.0055 157.931 97.0882 157.931 97.0882C156.742 97.314 155.539 97.4526 154.33 97.5028C153.908 97.5178 153.487 97.5046 153.067 97.4634C152.33 97.3846 151.741 97.1893 151.529 96.8021C150.732 95.4042 147.285 93.3194 147.285 93.3194C147.285 93.3194 145.101 94.6317 143.067 95.8257C142.418 96.2077 141.784 96.5777 141.24 96.8878C140.799 97.1222 140.312 97.2562 139.813 97.2801C137.395 97.4599 134.173 95.9422 134.686 95.4043C135.313 94.7464 138.419 83.2123 138.419 83.2123C138.419 83.2123 139.984 76.074 141.351 75.0753C141.591 74.8938 141.77 74.6434 141.864 74.3575C142.332 73.0539 141.55 70.9639 141.55 70.9639C141.55 70.9639 137.135 65.5112 137.333 65.196C137.532 64.8808 137.533 63.1986 137.533 63.1986C137.533 63.1986 138.075 60.5433 138.388 59.2585C138.701 57.9737 140.951 57.6585 141.606 57.7733C142.261 57.8881 143.741 58.2872 144.366 57.7733C144.992 57.2594 146.048 57.9737 146.048 57.9737L148.642 58.6898L150.975 57.3193C150.975 57.3193 153.313 57.4393 153.513 57.7527C153.713 58.0662 156.789 58.6675 156.789 58.6675C158.355 59.7228 158.298 64.7489 158.298 64.7489C158.298 64.7489 154.538 68.0311 153.769 69.7168C153.57 70.1903 153.436 70.6889 153.371 71.1986Z" fill="#575A89"/>
<path d="M157.447 64.0532L158.302 64.7384L159.185 72.7042L160.067 80.6991C160.067 80.6991 160.409 81.4991 160.694 81.4134C160.98 81.3278 160.951 86.1518 160.951 86.1518C160.951 86.1518 157.68 84.1355 156.507 86.813L155.595 80.3565C155.595 80.3565 154.426 73.7612 154.455 73.2473C154.484 72.7333 153.856 67.1659 153.856 67.1659L157.447 64.0532Z" fill="#575A89"/>
<path d="M137.964 64.4248L137.337 65.1957C137.337 65.1957 137.395 68.507 136.909 69.307C136.424 70.107 138.249 74.7889 138.933 74.5028C139.617 74.2167 141.155 66.9088 141.155 66.8231C141.155 66.7374 137.964 64.4248 137.964 64.4248Z" fill="#575A89"/>
<path d="M137.907 69.1357C137.907 69.1357 135.913 71.1623 136.055 72.1336C136.197 73.1049 138.106 76.1559 140.84 74.5165C140.84 74.5165 143.376 69.7353 137.907 69.1357Z" fill="#575A89"/>
<path opacity="0.1" d="M146.073 129.842C145.576 129.861 142.749 129.842 142.749 129.842C142.708 129.799 142.669 129.753 142.633 129.705C143.356 129.458 144.918 129.088 146.073 129.842Z" fill="black"/>
<path opacity="0.1" d="M154.159 129.842C153.662 129.861 150.835 129.842 150.835 129.842C150.793 129.799 150.755 129.753 150.719 129.705C151.438 129.458 153 129.088 154.159 129.842Z" fill="black"/>
<path opacity="0.1" d="M143.269 79.627C142.833 83.8171 142.976 92.1323 143.067 95.8257C142.418 96.2077 141.784 96.5778 141.24 96.8878C140.799 97.1223 140.312 97.2562 139.813 97.2801C139.632 96.1632 142.141 84.6908 143.269 79.627Z" fill="black"/>
<path opacity="0.1" d="M143.802 77.249C143.79 77.309 143.583 78.2203 143.269 79.6268C143.392 78.4259 143.563 77.5642 143.802 77.249Z" fill="black"/>
<path opacity="0.1" d="M150.741 76.7969C150.741 76.7969 153.162 92.0432 145.991 93.9276C145.99 93.9207 150.953 93.1652 150.741 76.7969Z" fill="black"/>
<path opacity="0.1" d="M154.33 97.5024C153.908 97.5175 153.486 97.5043 153.067 97.463L151.132 76.6167C152.366 77.4253 153.843 92.2193 154.33 97.5024Z" fill="black"/>
<path opacity="0.1" d="M145.655 51.2123C145.783 51.2021 145.912 51.2154 146.036 51.2517C146.217 51.3423 146.38 51.4654 146.518 51.6149C146.741 51.8016 147.007 51.9286 147.292 51.984C147.577 52.0394 147.872 52.0214 148.148 51.9318C148.343 51.8445 148.55 51.7867 148.762 51.7605C149.088 51.7605 149.37 52.0003 149.539 52.2744C149.708 52.5485 149.796 52.874 149.941 53.1669C150.086 53.4598 150.319 53.7374 150.638 53.8093C150.791 53.8153 150.942 53.8501 151.083 53.9121C151.169 53.9821 151.235 54.0737 151.274 54.1776C151.541 54.7549 151.753 55.4367 152.322 55.7194C152.531 55.8166 152.759 55.8663 152.99 55.865C153.224 55.8822 153.46 55.8398 153.673 55.7416C153.884 55.6239 154.058 55.4502 154.176 55.2397C154.531 54.6504 154.572 53.9207 154.489 53.2371C154.384 52.3749 154.078 51.5496 153.595 50.8286C153.086 50.0993 152.393 49.5186 151.587 49.1457C150.78 48.7728 149.89 48.6211 149.006 48.7061C148.698 48.7409 148.392 48.7981 148.092 48.8774C147.005 49.1686 145.938 49.7134 145.279 50.6264C145.119 50.8543 144.944 51.0707 144.754 51.274C145.053 51.2448 145.354 51.2191 145.655 51.2123Z" fill="black"/>
<path d="M145.655 51.0409C145.783 51.0307 145.912 51.044 146.036 51.0803C146.217 51.1709 146.38 51.294 146.518 51.4435C146.741 51.6302 147.007 51.7572 147.292 51.8126C147.577 51.868 147.872 51.8501 148.148 51.7604C148.343 51.6731 148.55 51.6153 148.762 51.5891C149.088 51.5891 149.37 51.8289 149.539 52.103C149.708 52.3771 149.796 52.7026 149.941 52.9955C150.086 53.2884 150.319 53.566 150.638 53.6379C150.791 53.6439 150.942 53.6788 151.083 53.7407C151.169 53.8108 151.235 53.9024 151.274 54.0062C151.541 54.5835 151.753 55.2653 152.322 55.548C152.531 55.6452 152.759 55.695 152.99 55.6936C153.224 55.7109 153.46 55.6684 153.673 55.5703C153.884 55.4525 154.058 55.2788 154.176 55.0683C154.531 54.479 154.572 53.7493 154.489 53.0658C154.384 52.2035 154.078 51.3782 153.595 50.6572C153.086 49.928 152.393 49.3472 151.587 48.9743C150.78 48.6014 149.89 48.4497 149.006 48.5347C148.698 48.5695 148.392 48.6267 148.092 48.706C147.005 48.9972 145.938 49.542 145.279 50.455C145.119 50.683 144.944 50.8993 144.754 51.1026C145.053 51.0735 145.354 51.0478 145.655 51.0409Z" fill="#3F3D56"/>
<path opacity="0.1" d="M141.297 60.627C141.297 60.627 141.496 62.227 140.813 62.6261C140.129 63.0252 141.297 60.627 141.297 60.627Z" fill="black"/>
<path opacity="0.1" d="M155.794 73.0193C155.794 73.0193 157.418 70.621 157.647 71.3062C157.876 71.9915 155.794 73.0193 155.794 73.0193Z" fill="black"/>
<path opacity="0.1" d="M155.909 73.818C155.909 73.818 157.51 71.848 157.664 72.6188C157.818 73.3897 155.909 73.818 155.909 73.818Z" fill="black"/>
<path opacity="0.1" d="M151.206 71.4726C150.625 71.4808 150.058 71.2938 149.596 70.9415H149.456C148.976 71.3806 148.346 71.618 147.697 71.6045C147.359 71.6123 147.024 71.5514 146.71 71.4254C146.397 71.2993 146.112 71.1108 145.873 70.8713H145.687C145.195 71.273 144.577 71.487 143.943 71.4754C143.308 71.4638 142.698 71.2273 142.221 70.8079L141.553 70.7959C141.553 70.7959 142.336 72.8858 141.867 74.1895L153.289 74.3933C153.201 73.2726 153.228 72.1457 153.371 71.0306V71.0152L152.744 71.0032C152.293 71.3168 151.755 71.481 151.206 71.4726Z" fill="black"/>
<path opacity="0.1" d="M151.206 71.8153C150.625 71.8236 150.058 71.6366 149.596 71.2843H149.456C148.976 71.7234 148.346 71.9608 147.697 71.9472C147.359 71.9551 147.024 71.8942 146.71 71.7681C146.397 71.6421 146.112 71.4536 145.873 71.214H145.687C145.195 71.6157 144.577 71.8298 143.943 71.8182C143.308 71.8066 142.698 71.5701 142.221 71.1507L141.553 71.1387C141.553 71.1387 142.336 73.2286 141.867 74.5323L153.289 74.7361C153.201 73.6154 153.228 72.4884 153.371 71.3734V71.3579L152.744 71.346C152.293 71.6596 151.755 71.8238 151.206 71.8153Z" fill="black"/>
<path d="M151.206 71.6439C150.625 71.6522 150.058 71.4652 149.596 71.1129H149.456C148.976 71.552 148.346 71.7894 147.697 71.7759C147.359 71.7837 147.024 71.7228 146.71 71.5967C146.397 71.4707 146.112 71.2822 145.873 71.0427H145.687C145.195 71.4443 144.577 71.6584 143.943 71.6468C143.308 71.6352 142.698 71.3987 142.221 70.9793L141.553 70.9673C141.553 70.9673 142.336 73.0572 141.867 74.3609L153.289 74.5647C153.201 73.444 153.228 72.3171 153.371 71.202V71.1866L152.744 71.1746C152.293 71.4882 151.755 71.6524 151.206 71.6439Z" fill="#3F3D56"/>
<path opacity="0.1" d="M150.698 60.2212C150.698 60.2212 153.103 60.3754 153.118 60.718C153.133 61.0606 150.698 60.2212 150.698 60.2212Z" fill="black"/>
<path opacity="0.1" d="M144.856 58.7598C144.856 58.7598 142.452 58.9139 142.436 59.2566C142.421 59.5992 144.856 58.7598 144.856 58.7598Z" fill="black"/>
<path opacity="0.1" d="M154.046 65.7645C154.022 65.7474 153.998 65.7337 153.974 65.7183C154.59 66.2733 154.487 67.4861 153.732 68.4866C152.976 69.487 151.829 69.9033 151.132 69.4545C151.154 69.4733 151.173 69.4939 151.197 69.5127C151.881 70.0369 153.077 69.6258 153.867 68.5911C154.656 67.5564 154.733 66.2904 154.046 65.7645Z" fill="black"/>
<path opacity="0.1" d="M140.837 68.3582C140.228 67.2584 140.307 66.0438 140.996 65.583C140.97 65.595 140.943 65.6053 140.917 65.619C140.162 66.0404 140.062 67.3029 140.688 68.4404C141.313 69.5779 142.441 70.1535 143.197 69.7389C143.222 69.7245 143.246 69.7085 143.269 69.6909C142.515 70.0336 141.445 69.458 140.837 68.3582Z" fill="black"/>
<path opacity="0.1" d="M141.65 59.0837L141.43 59.4264L140.867 59.1266L141.163 58.6709C141.359 58.7635 141.527 58.9059 141.65 59.0837Z" fill="black"/>
<path d="M138.078 71.7619C138.078 71.7619 138.579 69.4013 137.907 68.651C137.236 67.9007 137.451 63.9675 138.477 64.0531C139.502 64.1388 141.04 67.2497 140.784 67.9075C140.527 68.5654 139.558 71.9332 139.558 71.9332L138.078 71.7619Z" fill="#FBBEBE"/>
<path opacity="0.1" d="M154.159 54.731C154.041 54.9414 153.867 55.1151 153.656 55.2329C153.443 55.3311 153.207 55.3735 152.973 55.3562C152.742 55.3576 152.514 55.3079 152.305 55.2106C151.735 54.9262 151.523 54.2444 151.257 53.6689C151.223 53.565 151.163 53.4718 151.083 53.3982C150.944 53.3351 150.795 53.2985 150.643 53.2903C150.324 53.2183 150.093 52.9391 149.946 52.6479C149.799 52.3566 149.712 52.0346 149.544 51.7554C149.377 51.4761 149.093 51.2312 148.767 51.2414C148.554 51.2697 148.347 51.3303 148.153 51.4213C147.877 51.5103 147.582 51.5277 147.297 51.472C147.012 51.4163 146.746 51.2892 146.523 51.1027C146.386 50.9532 146.222 50.8301 146.041 50.7395C145.917 50.7032 145.788 50.6899 145.66 50.7001C145.463 50.7001 145.268 50.719 145.072 50.7344C144.974 50.8623 144.87 50.9847 144.759 51.101C145.058 51.0753 145.359 51.0496 145.66 51.0427C145.788 51.0325 145.917 51.0459 146.041 51.0821C146.222 51.1727 146.386 51.2958 146.523 51.4453C146.746 51.6319 147.012 51.7589 147.297 51.8146C147.582 51.8703 147.877 51.8529 148.153 51.7639C148.347 51.6729 148.554 51.6123 148.767 51.5841C149.093 51.5841 149.375 51.8239 149.544 52.098C149.714 52.3721 149.801 52.6975 149.946 52.9905C150.091 53.2834 150.324 53.5609 150.643 53.6329C150.795 53.6411 150.944 53.6777 151.083 53.7408C151.169 53.8109 151.235 53.9025 151.274 54.0063C151.541 54.5836 151.753 55.2654 152.322 55.5481C152.531 55.6453 152.759 55.6951 152.99 55.6937C153.224 55.711 153.46 55.6685 153.673 55.5704C153.884 55.4526 154.058 55.2789 154.176 55.0684C154.441 54.5842 154.56 54.033 154.518 53.4821C154.505 53.922 154.381 54.3515 154.159 54.731Z" fill="black"/>
<path d="M138.836 73.6344C139.685 73.6344 140.374 73.1665 140.374 72.5894C140.374 72.0123 139.685 71.5444 138.836 71.5444C137.986 71.5444 137.297 72.0123 137.297 72.5894C137.297 73.1665 137.986 73.6344 138.836 73.6344Z" fill="#575A89"/>
<path d="M88.6986 130.757C117.818 130.757 141.423 107.096 141.423 77.9087C141.423 48.7215 117.818 25.0605 88.6986 25.0605C59.5797 25.0605 35.9741 48.7215 35.9741 77.9087C35.9741 107.096 59.5797 130.757 88.6986 130.757Z" fill="#D2D2D2"/>
<path d="M116.363 104.466C116.363 112.809 103.278 105.179 89.2505 105.179C75.2226 105.179 61.0339 112.494 61.0339 104.151C61.0339 99.3938 65.5561 92.778 72.0437 87.9728C76.9316 84.3514 82.9338 81.7578 88.9634 81.7578C95.1639 81.7578 101.238 84.5655 106.083 88.4199C112.198 93.2799 116.363 99.8101 116.363 104.466Z" fill="#444053"/>
<path d="M106.081 88.4165C98.6247 87.291 85.1385 85.9189 72.0437 87.9694C76.9316 84.348 82.9338 81.7544 88.9634 81.7544C95.1622 81.7544 101.236 84.5621 106.081 88.4165Z" fill="#F6F8FB"/>
<path opacity="0.05" d="M61.034 40.603C61.034 40.603 45.1517 50.7804 45.2816 66.6999C45.4114 82.6194 61.034 40.603 61.034 40.603Z" fill="black"/>
<path d="M141.402 11.8595C141.402 11.8595 127.012 10.991 128.709 21.0981C128.709 21.0981 128.367 22.8831 129.988 23.6951C129.988 23.6951 130.013 22.9465 131.462 23.2C131.979 23.2866 132.504 23.3119 133.026 23.2754C133.732 23.2273 134.403 22.9494 134.937 22.4839C134.937 22.4839 138.982 20.8103 140.556 14.1824C140.556 14.1824 141.72 12.7366 141.674 12.3666L139.246 13.4047C139.246 13.4047 140.074 15.1606 139.416 16.6201C139.416 16.6201 139.338 13.4698 138.871 13.5366C138.777 13.552 137.61 14.1447 137.61 14.1447C137.61 14.1447 139.037 17.2043 137.952 19.4261C137.952 19.4261 138.36 15.6574 137.155 14.3657L135.446 15.3662C135.446 15.3662 137.114 18.525 135.983 21.1032C135.983 21.1032 136.273 17.1495 135.087 15.6094L133.537 16.8205C133.537 16.8205 135.104 19.9349 134.149 22.0728C134.149 22.0728 134.024 17.4698 133.202 17.122C133.202 17.122 131.847 18.3212 131.64 18.8128C131.64 18.8128 132.714 21.0724 132.049 22.2647C132.049 22.2647 131.64 19.1983 131.305 19.1812C131.305 19.1812 129.955 21.2128 129.813 22.6073C129.813 22.6073 129.873 20.5345 130.977 18.9876C130.977 18.9876 129.671 19.212 128.911 20.0617C128.911 20.0617 129.121 18.6244 131.304 18.4994C131.304 18.4994 132.42 16.9576 132.719 16.8651C132.719 16.8651 130.54 16.6818 129.218 17.2694C129.218 17.2694 130.381 15.9143 133.117 16.5293L134.655 15.2788C134.655 15.2788 131.787 14.8848 130.57 15.3199C130.57 15.3199 131.97 14.1208 135.067 14.9944L136.733 13.9957C136.733 13.9957 134.288 13.4681 132.83 13.6531C132.83 13.6531 134.368 12.8222 137.22 13.7233L138.417 13.1871C138.417 13.1871 136.624 12.8342 136.099 12.7794C135.574 12.7246 135.547 12.5773 135.547 12.5773C136.686 12.3917 137.853 12.5276 138.919 12.9696C138.919 12.9696 141.445 12.0188 141.402 11.8595Z" fill="#D2D2D2"/>
<path d="M126.643 7.36595C126.643 7.36595 120.149 6.97195 120.907 11.539C120.907 11.539 120.755 12.3458 121.485 12.7124C121.485 12.7124 121.495 12.3698 122.152 12.4897C122.385 12.5282 122.622 12.5397 122.857 12.524C123.177 12.5012 123.48 12.3756 123.722 12.166C123.722 12.166 125.549 11.4088 126.26 8.41435C126.26 8.41435 126.787 7.76167 126.773 7.59379L125.676 8.06317C125.676 8.06317 126.052 8.85632 125.756 9.51585C125.756 9.51585 125.72 8.09229 125.51 8.12656C125.467 8.12656 124.939 8.40065 124.939 8.40065C124.939 8.40065 125.585 9.78309 125.098 10.7869C125.098 10.7869 125.283 9.08416 124.739 8.5L123.967 8.95225C123.967 8.95225 124.72 10.381 124.209 11.5458C124.209 11.5458 124.339 9.75911 123.804 9.0636L123.104 9.61007C123.104 9.61007 123.811 11.0165 123.38 11.9827C123.38 11.9827 123.324 9.90301 122.951 9.7454C122.951 9.7454 122.34 10.2867 122.246 10.5094C122.246 10.5094 122.731 11.5373 122.43 12.07C122.43 12.07 122.246 10.6842 122.088 10.679C122.088 10.679 121.478 11.5955 121.415 12.2208C121.444 11.6389 121.625 11.0749 121.94 10.5848C121.588 10.6515 121.264 10.82 121.007 11.0696C121.007 11.0696 121.1 10.4204 122.09 10.3638C122.09 10.3638 122.594 9.66832 122.729 9.62549C122.729 9.62549 121.745 9.54326 121.148 9.80879C121.148 9.80879 121.673 9.19551 122.91 9.46617L123.594 8.90258C123.594 8.90258 122.299 8.73127 121.748 8.91971C121.748 8.91971 122.381 8.37838 123.78 8.7741L124.532 8.32185C124.532 8.32185 123.428 8.08373 122.769 8.16938C122.769 8.16938 123.464 7.79422 124.753 8.20193L125.291 7.95867C125.291 7.95867 124.481 7.79936 124.245 7.77538C124.009 7.75139 123.994 7.68458 123.994 7.68458C124.507 7.59904 125.034 7.65835 125.515 7.85589C125.515 7.85589 126.662 7.4379 126.643 7.36595Z" fill="#D2D2D2"/>
<path opacity="0.1" d="M183.397 125.055C185.939 125.055 188 124.707 188 124.276C188 123.846 185.939 123.497 183.397 123.497C180.856 123.497 178.795 123.846 178.795 124.276C178.795 124.707 180.856 125.055 183.397 125.055Z" fill="#D2D2D2"/>
<path opacity="0.1" d="M7.99337 138.022C10.5353 138.022 12.5959 137.673 12.5959 137.242C12.5959 136.812 10.5353 136.463 7.99337 136.463C5.45148 136.463 3.39087 136.812 3.39087 137.242C3.39087 137.673 5.45148 138.022 7.99337 138.022Z" fill="#D2D2D2"/>
<path opacity="0.1" d="M34.7109 139C37.2528 139 39.3134 138.651 39.3134 138.22C39.3134 137.79 37.2528 137.441 34.7109 137.441C32.169 137.441 30.1084 137.79 30.1084 138.22C30.1084 138.651 32.169 139 34.7109 139Z" fill="#D2D2D2"/>
<path d="M173.324 133.794C177.12 133.794 180.196 133.273 180.196 132.629C180.196 131.986 177.12 131.464 173.324 131.464C169.529 131.464 166.452 131.986 166.452 132.629C166.452 133.273 169.529 133.794 173.324 133.794Z" fill="#D2D2D2"/>
<path d="M176.165 130.726C176.478 130.469 176.707 130.123 176.821 129.734C176.905 129.342 176.737 128.869 176.363 128.725C175.943 128.564 175.493 128.857 175.153 129.151C174.813 129.446 174.422 129.782 173.976 129.72C174.205 129.512 174.377 129.248 174.474 128.953C174.571 128.659 174.59 128.344 174.529 128.04C174.51 127.914 174.457 127.795 174.375 127.697C174.141 127.447 173.719 127.553 173.439 127.75C172.55 128.377 172.302 129.587 172.297 130.676C172.208 130.284 172.284 129.874 172.282 129.477C172.28 129.079 172.169 128.62 171.831 128.41C171.621 128.297 171.385 128.242 171.147 128.249C170.747 128.233 170.303 128.273 170.029 128.566C169.687 128.93 169.778 129.54 170.074 129.936C170.369 130.332 170.817 130.589 171.229 130.865C171.561 131.062 171.843 131.332 172.056 131.654C172.081 131.7 172.102 131.747 172.118 131.796H174.622C175.182 131.511 175.701 131.151 176.165 130.726Z" fill="#D2D2D2"/>
<path d="M10.1416 116.362C10.1416 116.362 11.0799 117.592 9.70748 119.445C8.3351 121.299 7.20371 122.871 7.65661 124.03C7.65661 124.03 9.72628 120.579 11.4165 120.53C13.1068 120.48 11.9942 118.436 10.1416 116.362Z" fill="#D2D2D2"/>
<path opacity="0.1" d="M10.1415 116.362C10.2229 116.481 10.2874 116.61 10.3329 116.747C11.977 118.683 12.852 120.49 11.2729 120.535C9.79966 120.578 8.02565 123.216 7.61035 123.882C7.62487 123.934 7.64198 123.985 7.66162 124.035C7.66162 124.035 9.7313 120.585 11.4216 120.535C13.1118 120.485 11.9941 118.436 10.1415 116.362Z" fill="black"/>
<path d="M11.8865 117.93C11.8865 118.363 11.8369 118.714 11.7771 118.714C11.7173 118.714 11.6694 118.371 11.6694 117.93C11.6694 117.488 11.7293 117.7 11.7908 117.7C11.8523 117.7 11.8865 117.496 11.8865 117.93Z" fill="#FFD037"/>
<path d="M12.4779 118.447C12.0985 118.654 11.7686 118.779 11.7396 118.726C11.7105 118.673 11.9959 118.464 12.3754 118.256C12.7548 118.049 12.6044 118.2 12.6334 118.256C12.6625 118.313 12.8641 118.239 12.4779 118.447Z" fill="#FFD037"/>
<path d="M5.18189 116.362C5.18189 116.362 4.24362 117.592 5.61428 119.445C6.98495 121.299 8.11805 122.871 7.66515 124.03C7.66515 124.03 5.59377 120.579 3.90522 120.53C2.21667 120.48 3.32756 118.436 5.18189 116.362Z" fill="#D2D2D2"/>
<path opacity="0.1" d="M5.18193 116.362C5.0997 116.48 5.03521 116.61 4.99051 116.747C3.3464 118.683 2.46965 120.49 4.05053 120.535C5.52203 120.578 7.29774 123.216 7.71133 123.882C7.69739 123.934 7.68085 123.985 7.66177 124.035C7.66177 124.035 5.59039 120.585 3.90184 120.535C2.21329 120.485 3.3276 118.436 5.18193 116.362Z" fill="black"/>
<path d="M3.43701 117.93C3.43701 118.363 3.48487 118.714 3.54468 118.714C3.6045 118.714 3.65235 118.371 3.65235 117.93C3.65235 117.488 3.59254 117.7 3.53272 117.7C3.4729 117.7 3.43701 117.496 3.43701 117.93Z" fill="#FFD037"/>
<path d="M2.83706 118.447C3.21647 118.654 3.54803 118.779 3.57708 118.726C3.60614 118.673 3.32072 118.464 2.94131 118.256C2.5619 118.049 2.71059 118.2 2.68325 118.256C2.6559 118.313 2.45765 118.239 2.83706 118.447Z" fill="#FFD037"/>
<path d="M3.73608 123.874C3.73608 123.874 6.3612 123.793 7.1542 123.228C7.94721 122.662 11.1927 121.989 11.3893 122.885C11.5858 123.781 15.3338 127.391 12.3703 127.415C9.40675 127.439 5.48445 126.95 4.69487 126.469C3.90528 125.988 3.73608 123.874 3.73608 123.874Z" fill="#A8A8A8"/>
<path opacity="0.2" d="M12.4198 127.108C9.45631 127.132 5.53402 126.644 4.74443 126.162C4.14284 125.796 3.90357 124.478 3.82325 123.87H3.73608C3.73608 123.87 3.90699 125.993 4.69145 126.474C5.47591 126.955 9.40333 127.444 12.3668 127.42C13.2214 127.42 13.517 127.106 13.5017 126.656C13.382 126.931 13.0573 127.103 12.4198 127.108Z" fill="black"/>
<path d="M69.9535 70.9791C70.9567 70.9226 75.6788 70.5663 78.6782 68.8515C79.1599 68.5674 79.7041 68.4068 80.2625 68.3838C81.2162 68.3564 82.3134 68.7556 81.611 70.9894C80.4727 74.6434 73.8638 78.7547 69.7621 78.5269C65.8176 78.3076 61.1382 76.7145 58.0482 71.1127C57.7521 70.5738 57.6063 69.9649 57.626 69.35C57.6619 68.2194 58.0721 66.8027 60.1896 68.3821C63.0506 70.5149 68.4786 70.9192 69.5672 70.9791C69.6959 70.986 69.8248 70.986 69.9535 70.9791Z" fill="#444053"/>
<path d="M107.895 70.9791C108.898 70.9226 113.62 70.5663 116.619 68.8515C117.101 68.5674 117.645 68.4068 118.204 68.3838C119.157 68.3564 120.255 68.7556 119.552 70.9894C118.414 74.6434 111.805 78.7547 107.703 78.5269C103.759 78.3076 99.0793 76.7145 95.9893 71.1127C95.6933 70.5738 95.5475 69.9649 95.5672 69.35C95.6031 68.2194 96.0133 66.8027 98.1308 68.3821C100.992 70.5149 106.42 70.9192 107.508 70.9791C107.637 70.986 107.766 70.986 107.895 70.9791Z" fill="#444053"/>
</g>
<defs>
<linearGradient id="paint0_linear_141_1870" x1="152.472" y1="129.849" x2="152.472" y2="45.2163" gradientUnits="userSpaceOnUse">
<stop stop-color="#808080" stop-opacity="0.25"/>
<stop offset="0.54" stop-color="#808080" stop-opacity="0.12"/>
<stop offset="1" stop-color="#808080" stop-opacity="0.1"/>
</linearGradient>
<clipPath id="clip0_141_1870">
<rect width="188" height="139" fill="white"/>
</clipPath>
</defs>
</svg>
