<svg width="242" height="132" viewBox="0 0 242 132" fill="none" xmlns="http://www.w3.org/2000/svg">
<g clip-path="url(#clip0_161_3112)">
<path d="M32.5424 68.8005H24.7977C24.5253 68.8005 24.2642 68.9085 24.0716 69.1006C23.8791 69.2927 23.7709 69.5533 23.7709 69.825V73.2165C23.7709 73.4882 23.8791 73.7487 24.0716 73.9409C24.2642 74.133 24.5253 74.2409 24.7977 74.2409H26.0811V79.3226H31.259V74.2409H32.5424C32.8148 74.2409 33.0759 74.133 33.2685 73.9409C33.4611 73.7487 33.5692 73.4882 33.5692 73.2165V69.825C33.5692 69.5533 33.4611 69.2927 33.2685 69.1006C33.0759 68.9085 32.8148 68.8005 32.5424 68.8005Z" fill="#EAEAEA"/>
<path d="M40.2997 99.84C35.5566 92.9156 33.1318 84.6711 33.3727 76.2876C33.377 76.0942 33.3141 75.9052 33.1946 75.7528C33.0751 75.6004 32.9065 75.494 32.7172 75.4515V73.9861H24.5377V75.4312H24.425C24.3097 75.4313 24.1956 75.4552 24.0899 75.5013C23.9842 75.5474 23.8891 75.6148 23.8107 75.6992C23.7322 75.7836 23.6721 75.8832 23.634 75.9918C23.5958 76.1005 23.5806 76.2158 23.5891 76.3306C24.2335 85.2924 22.0576 93.3292 17.0612 100.441C16.7737 100.85 16.6268 101.34 16.6426 101.839L17.537 129.441C17.5585 130.057 17.8175 130.641 18.2599 131.07C18.7024 131.5 19.2941 131.743 19.9115 131.748H38.4123C39.0368 131.742 39.6346 131.494 40.0784 131.056C40.5222 130.618 40.7769 130.024 40.7882 129.401L41.1329 102.602C41.1431 101.618 40.8524 100.655 40.2997 99.84Z" fill="#3F3D56"/>
<path opacity="0.2" d="M30.928 69.9058C30.928 70.4919 30.6946 71.0541 30.2792 71.4686C29.8637 71.8831 29.3003 72.1159 28.7127 72.1159C28.1252 72.1159 27.5617 71.8831 27.1463 71.4686C26.7308 71.0541 26.4974 70.4919 26.4974 69.9058" fill="black"/>
<path d="M37.371 109.008H35.1307C34.9168 107.624 34.2133 106.361 33.1473 105.449C32.0814 104.537 30.7235 104.035 29.3193 104.035C27.915 104.035 26.5571 104.537 25.4912 105.449C24.4253 106.361 23.7218 107.624 23.5079 109.008H21.2674C21.0291 109.008 20.7935 109.06 20.5769 109.159C20.3603 109.258 20.1679 109.403 20.0126 109.584C19.8574 109.764 19.7432 109.976 19.6777 110.205C19.6122 110.433 19.5971 110.673 19.6334 110.909L22.0668 126.689H36.0402L38.996 110.962C39.0407 110.723 39.0323 110.478 38.9714 110.244C38.9104 110.009 38.7984 109.791 38.6432 109.604C38.4881 109.418 38.2936 109.268 38.0737 109.165C37.8539 109.062 37.6139 109.008 37.371 109.008Z" fill="#EAEAEA"/>
<path d="M225.636 83.6428L225.098 105.072L224.433 131.644H201.779L200.999 100.511L200.577 83.6428H225.636Z" fill="#E6E6E6"/>
<path d="M214.61 72.2424H211.402V114.644H214.61V72.2424Z" fill="#EAEAEA"/>
<path d="M224.032 99.7893L223.425 130.247H202.777L202.066 94.5626C203.926 94.0413 205.874 93.9078 207.788 94.1705C209.703 94.4332 211.542 95.0863 213.192 96.0893C216.642 98.125 220.518 99.2208 224.032 99.7893Z" fill="#3F3D56"/>
<path d="M207.889 103.218H204.945V106.154H207.889V103.218Z" fill="#E6E6E6"/>
<path d="M209.893 97.2178H206.95V100.154H209.893V97.2178Z" fill="#E6E6E6"/>
<path d="M216.213 101.372L213.849 99.6226L212.096 101.981L214.46 103.73L216.213 101.372Z" fill="#E6E6E6"/>
<path d="M221.531 106.574L219.167 104.825L217.414 107.184L219.778 108.933L221.531 106.574Z" fill="#E6E6E6"/>
<path d="M212.51 109.575L210.146 107.825L208.392 110.184L210.756 111.933L212.51 109.575Z" fill="#E6E6E6"/>
<path d="M219.421 96.0433C219.753 96.0433 220.022 95.7747 220.022 95.4433C220.022 95.1119 219.753 94.8433 219.421 94.8433C219.089 94.8433 218.819 95.1119 218.819 95.4433C218.819 95.7747 219.089 96.0433 219.421 96.0433Z" fill="#3F3D56"/>
<path d="M207.192 92.0431C207.524 92.0431 207.794 91.7744 207.794 91.443C207.794 91.1117 207.524 90.843 207.192 90.843C206.86 90.843 206.591 91.1117 206.591 91.443C206.591 91.7744 206.86 92.0431 207.192 92.0431Z" fill="#3F3D56"/>
<path d="M217.416 87.8429C217.748 87.8429 218.018 87.5742 218.018 87.2428C218.018 86.9115 217.748 86.6428 217.416 86.6428C217.084 86.6428 216.815 86.9115 216.815 87.2428C216.815 87.5742 217.084 87.8429 217.416 87.8429Z" fill="#3F3D56"/>
<path d="M121.138 131.461C157.525 131.461 187.022 102.033 187.022 65.7307C187.022 29.4286 157.525 0 121.138 0C84.752 0 55.255 29.4286 55.255 65.7307C55.255 102.033 84.752 131.461 121.138 131.461Z" fill="#EAEAEA"/>
<path opacity="0.2" d="M121.139 113.708C110.013 113.708 99.2318 109.859 90.6318 102.817C82.0317 95.7757 76.145 85.9769 73.9746 75.0905C71.8042 64.2041 73.4844 52.9037 78.7289 43.1147C83.9734 33.3257 92.4578 25.6537 102.736 21.4061C113.015 17.1585 124.452 16.598 135.098 19.8201C145.745 23.0421 154.942 29.8475 161.123 39.0765C167.304 48.3056 170.086 59.3873 168.995 70.4335C167.905 81.4797 163.009 91.8069 155.142 99.6556C150.687 104.125 145.388 107.668 139.551 110.08C133.714 112.492 127.456 113.725 121.139 113.708ZM121.139 20.7125C96.2577 20.7125 76.0158 40.9075 76.0158 65.7306C76.0158 90.5536 96.2577 110.749 121.139 110.749C146.019 110.749 166.261 90.5536 166.261 65.7306C166.261 40.9075 146.019 20.7125 121.139 20.7125Z" fill="black"/>
<path d="M121.138 112.228C146.878 112.228 167.744 91.4107 167.744 65.7308C167.744 40.0508 146.878 19.2332 121.138 19.2332C95.3989 19.2332 74.5328 40.0508 74.5328 65.7308C74.5328 91.4107 95.3989 112.228 121.138 112.228Z" fill="#3F3D56"/>
<path d="M86.4788 47.1382C86.1254 46.4476 85.9118 45.6942 85.8504 44.9212C85.789 44.1481 85.8809 43.3706 86.1209 42.633C86.3608 41.8954 86.7441 41.2122 87.2489 40.6225C87.7537 40.0328 88.37 39.5482 89.0626 39.1963C89.7553 38.8444 90.5106 38.6321 91.2855 38.5717C92.0604 38.5112 92.8397 38.6037 93.5787 38.8439C94.3178 39.0841 95.0021 39.4672 95.5927 39.9715C96.1832 40.4757 96.6683 41.0911 97.0203 41.7825L110.188 67.579C110.541 68.2697 110.755 69.0231 110.816 69.7961C110.877 70.5692 110.786 71.3467 110.546 72.0843C110.306 72.8219 109.922 73.5051 109.418 74.0947C108.913 74.6844 108.296 75.1691 107.604 75.521C106.911 75.8729 106.156 76.0851 105.381 76.1456C104.606 76.2061 103.827 76.1136 103.088 75.8734C102.349 75.6332 101.664 75.25 101.074 74.7458C100.483 74.2416 99.9981 73.6262 99.6461 72.9348L86.4788 47.1382Z" fill="#FF6584"/>
<path opacity="0.2" d="M87.9476 50.0156L87.3398 48.825C90.3728 46.4739 93.9343 44.7447 97.8813 43.4692L98.4891 44.6598C94.2172 45.5474 90.5828 47.1898 87.9476 50.0156Z" fill="black"/>
<path opacity="0.2" d="M90.7835 55.5718L90.1758 54.3811C93.2087 52.03 96.7702 50.3009 100.717 49.0254L101.325 50.216C97.0531 51.1035 93.4187 52.746 90.7835 55.5718Z" fill="black"/>
<path opacity="0.2" d="M93.6196 61.1279L93.0118 59.9373C96.0448 57.5862 99.6063 55.857 103.553 54.5815L104.161 55.7722C99.8892 56.6597 96.2547 58.3022 93.6196 61.1279Z" fill="black"/>
<path opacity="0.2" d="M96.4556 66.6841L95.8479 65.4934C98.8808 63.1423 102.442 61.4132 106.389 60.1377L106.997 61.3283C102.725 62.2158 99.0908 63.8583 96.4556 66.6841Z" fill="black"/>
<path opacity="0.2" d="M99.2917 72.2402L98.684 71.0496C101.717 68.6985 105.278 66.9693 109.225 65.6938L109.833 66.8845C105.561 67.772 101.927 69.4145 99.2917 72.2402Z" fill="black"/>
<path d="M76.6004 56.7954C76.247 56.1048 76.0336 55.3514 75.9722 54.5784C75.9108 53.8054 76.0028 53.0279 76.2428 52.2904C76.4828 51.5529 76.8661 50.8698 77.3708 50.2801C77.8756 49.6905 78.4919 49.2059 79.1845 48.854C79.8771 48.5021 80.6324 48.2899 81.4072 48.2294C82.1821 48.1689 82.9613 48.2614 83.7003 48.5015C84.4393 48.7417 85.1236 49.1247 85.7141 49.6289C86.3047 50.133 86.7898 50.7483 87.1419 51.4397L100.309 77.2362C101.019 78.6306 101.145 80.2492 100.66 81.7363C100.174 83.2234 99.1166 84.4573 97.7197 85.1671C96.3227 85.8768 94.7005 86.0042 93.2095 85.5214C91.7184 85.0385 90.4805 83.9849 89.7677 82.592L76.6004 56.7954Z" fill="#FF6584"/>
<path opacity="0.2" d="M78.069 59.6728L77.4613 58.4822C80.4943 56.1311 84.0558 54.402 88.0028 53.1265L88.6105 54.3171C84.3386 55.2046 80.7042 56.8471 78.069 59.6728Z" fill="black"/>
<path opacity="0.2" d="M80.9051 65.229L80.2974 64.0384C83.3303 61.6872 86.8918 59.9581 90.8389 58.6826L91.4466 59.8732C87.1747 60.7607 83.5403 62.4032 80.9051 65.229Z" fill="black"/>
<path opacity="0.2" d="M83.7412 70.7851L83.1334 69.5945C86.1664 67.2434 89.7279 65.5143 93.6749 64.2388L94.2826 65.4294C90.0107 66.3169 86.3763 67.9594 83.7412 70.7851Z" fill="black"/>
<path opacity="0.2" d="M86.5771 76.3413L85.9694 75.1507C89.0023 72.7995 92.5638 71.0704 96.5109 69.7949L97.1186 70.9855C92.8467 71.8731 89.2123 73.5155 86.5771 76.3413Z" fill="black"/>
<path opacity="0.2" d="M89.4131 81.8974L88.8054 80.7068C91.8384 78.3557 95.3999 76.6266 99.3469 75.3511L99.9546 76.5417C95.6827 77.4292 92.0483 79.0717 89.4131 81.8974Z" fill="black"/>
<path d="M152.279 67.2102L152.321 67.2103C153.739 67.2221 155.128 66.8073 156.307 66.0198C157.485 65.2323 158.398 64.1088 158.927 62.7958C160.014 60.0534 160.562 57.1277 160.541 54.1785C160.467 41.6958 150.288 31.4552 137.777 31.2825C132.449 31.2081 127.259 32.9742 123.087 36.2813C118.915 39.5884 116.018 44.2331 114.886 49.4281C113.755 54.6231 114.458 60.0486 116.878 64.785C119.298 69.5214 123.285 73.2773 128.164 75.4159C129.453 75.9854 130.884 76.1529 132.271 75.8964C133.657 75.6399 134.933 74.9715 135.932 73.9787C138.074 71.8301 140.622 70.1258 143.428 68.9641C146.233 67.8024 149.242 67.2064 152.279 67.2102Z" fill="#E6E6E6"/>
<path d="M140.416 60.2355C144.628 60.2355 148.043 56.8289 148.043 52.6268C148.043 48.4246 144.628 45.0181 140.416 45.0181C136.204 45.0181 132.79 48.4246 132.79 52.6268C132.79 56.8289 136.204 60.2355 140.416 60.2355Z" fill="#F9A825"/>
<path d="M123.841 51.7712C124.338 51.7712 124.74 51.3699 124.74 50.8749C124.74 50.3798 124.338 49.9785 123.841 49.9785C123.345 49.9785 122.943 50.3798 122.943 50.8749C122.943 51.3699 123.345 51.7712 123.841 51.7712Z" fill="#3F3D56"/>
<path d="M94.1832 52.6167C94.6794 52.6167 95.0816 52.2153 95.0816 51.7203C95.0816 51.2253 94.6794 50.824 94.1832 50.824C93.687 50.824 93.2848 51.2253 93.2848 51.7203C93.2848 52.2153 93.687 52.6167 94.1832 52.6167Z" fill="#3F3D56"/>
<path d="M128.63 42.4819C129.126 42.4819 129.528 42.0806 129.528 41.5855C129.528 41.0905 129.126 40.6892 128.63 40.6892C128.133 40.6892 127.731 41.0905 127.731 41.5855C127.731 42.0806 128.133 42.4819 128.63 42.4819Z" fill="#3F3D56"/>
<path d="M128.604 68.3178C129.1 68.3178 129.502 67.9165 129.502 67.4215C129.502 66.9264 129.1 66.5251 128.604 66.5251C128.108 66.5251 127.706 66.9264 127.706 67.4215C127.706 67.9165 128.108 68.3178 128.604 68.3178Z" fill="#3F3D56"/>
<path d="M146.399 40.6306C146.895 40.6306 147.297 40.2293 147.297 39.7342C147.297 39.2392 146.895 38.8379 146.399 38.8379C145.903 38.8379 145.5 39.2392 145.5 39.7342C145.5 40.2293 145.903 40.6306 146.399 40.6306Z" fill="#3F3D56"/>
<path d="M88.3537 65.1477C88.8499 65.1477 89.2522 64.7464 89.2522 64.2513C89.2522 63.7563 88.8499 63.355 88.3537 63.355C87.8576 63.355 87.4553 63.7563 87.4553 64.2513C87.4553 64.7464 87.8576 65.1477 88.3537 65.1477Z" fill="#3F3D56"/>
<path d="M94.9209 78.04C95.4171 78.04 95.8193 77.6387 95.8193 77.1437C95.8193 76.6486 95.4171 76.2473 94.9209 76.2473C94.4247 76.2473 94.0225 76.6486 94.0225 77.1437C94.0225 77.6387 94.4247 78.04 94.9209 78.04Z" fill="#3F3D56"/>
<path d="M136.179 82.2162C138.051 82.2162 139.569 80.7022 139.569 78.8345C139.569 76.9669 138.051 75.4529 136.179 75.4529C134.307 75.4529 132.79 76.9669 132.79 78.8345C132.79 80.7022 134.307 82.2162 136.179 82.2162Z" fill="#FF6584"/>
<path opacity="0.2" d="M138.721 79.0459C138.721 79.7185 138.454 80.3636 137.977 80.8393C137.5 81.3149 136.854 81.5821 136.179 81.5821C135.505 81.5821 134.859 81.3149 134.382 80.8393C133.905 80.3636 133.637 79.7185 133.637 79.0459" fill="black"/>
<path opacity="0.2" d="M133.637 78.6232C133.637 77.9505 133.905 77.3054 134.382 76.8298C134.859 76.3541 135.505 76.0869 136.179 76.0869C136.854 76.0869 137.5 76.3541 137.977 76.8298C138.454 77.3054 138.721 77.9505 138.721 78.6232" fill="black"/>
<path d="M134.908 77.989C135.025 77.989 135.12 77.8471 135.12 77.672C135.12 77.4969 135.025 77.355 134.908 77.355C134.791 77.355 134.697 77.4969 134.697 77.672C134.697 77.8471 134.791 77.989 134.908 77.989Z" fill="#FF6584"/>
<path d="M136.179 77.5664C136.296 77.5664 136.391 77.4245 136.391 77.2494C136.391 77.0743 136.296 76.9324 136.179 76.9324C136.062 76.9324 135.968 77.0743 135.968 77.2494C135.968 77.4245 136.062 77.5664 136.179 77.5664Z" fill="#FF6584"/>
<path d="M136.179 80.314C136.296 80.314 136.391 80.1721 136.391 79.997C136.391 79.8219 136.296 79.6799 136.179 79.6799C136.062 79.6799 135.968 79.8219 135.968 79.997C135.968 80.1721 136.062 80.314 136.179 80.314Z" fill="#FF6584"/>
<path d="M137.45 78.6233C137.567 78.6233 137.662 78.4814 137.662 78.3063C137.662 78.1312 137.567 77.9893 137.45 77.9893C137.333 77.9893 137.239 78.1312 137.239 78.3063C137.239 78.4814 137.333 78.6233 137.45 78.6233Z" fill="#FF6584"/>
<path d="M137.239 80.948C137.356 80.948 137.45 80.8061 137.45 80.631C137.45 80.4559 137.356 80.314 137.239 80.314C137.122 80.314 137.027 80.4559 137.027 80.631C137.027 80.8061 137.122 80.948 137.239 80.948Z" fill="#FF6584"/>
<path d="M134.696 79.8914C134.813 79.8914 134.908 79.7495 134.908 79.5744C134.908 79.3993 134.813 79.2573 134.696 79.2573C134.579 79.2573 134.485 79.3993 134.485 79.5744C134.485 79.7495 134.579 79.8914 134.696 79.8914Z" fill="#FF6584"/>
<path d="M142.958 73.128C144.83 73.128 146.348 71.614 146.348 69.7464C146.348 67.8788 144.83 66.3647 142.958 66.3647C141.086 66.3647 139.569 67.8788 139.569 69.7464C139.569 71.614 141.086 73.128 142.958 73.128Z" fill="#FF6584"/>
<path opacity="0.2" d="M145.501 69.9578C145.501 70.6304 145.233 71.2755 144.756 71.7511C144.279 72.2268 143.633 72.494 142.958 72.494C142.284 72.494 141.638 72.2268 141.161 71.7511C140.684 71.2755 140.416 70.6304 140.416 69.9578" fill="black"/>
<path opacity="0.2" d="M140.416 69.535C140.416 68.8624 140.684 68.2173 141.161 67.7416C141.638 67.266 142.284 66.9988 142.958 66.9988C143.633 66.9988 144.279 67.266 144.756 67.7416C145.233 68.2173 145.501 68.8624 145.501 69.535" fill="black"/>
<path d="M141.687 68.9009C141.804 68.9009 141.899 68.759 141.899 68.5839C141.899 68.4088 141.804 68.2668 141.687 68.2668C141.57 68.2668 141.475 68.4088 141.475 68.5839C141.475 68.759 141.57 68.9009 141.687 68.9009Z" fill="#FF6584"/>
<path d="M142.958 68.4783C143.075 68.4783 143.17 68.3364 143.17 68.1613C143.17 67.9862 143.075 67.8442 142.958 67.8442C142.841 67.8442 142.747 67.9862 142.747 68.1613C142.747 68.3364 142.841 68.4783 142.958 68.4783Z" fill="#FF6584"/>
<path d="M142.958 71.2259C143.075 71.2259 143.17 71.0839 143.17 70.9088C143.17 70.7337 143.075 70.5918 142.958 70.5918C142.841 70.5918 142.747 70.7337 142.747 70.9088C142.747 71.0839 142.841 71.2259 142.958 71.2259Z" fill="#FF6584"/>
<path d="M144.229 69.5349C144.346 69.5349 144.441 69.393 144.441 69.2179C144.441 69.0428 144.346 68.9009 144.229 68.9009C144.112 68.9009 144.018 69.0428 144.018 69.2179C144.018 69.393 144.112 69.5349 144.229 69.5349Z" fill="#FF6584"/>
<path d="M144.018 71.8599C144.135 71.8599 144.229 71.7179 144.229 71.5429C144.229 71.3678 144.135 71.2258 144.018 71.2258C143.901 71.2258 143.806 71.3678 143.806 71.5429C143.806 71.7179 143.901 71.8599 144.018 71.8599Z" fill="#FF6584"/>
<path d="M141.476 70.8032C141.593 70.8032 141.687 70.6613 141.687 70.4862C141.687 70.3111 141.593 70.1692 141.476 70.1692C141.359 70.1692 141.264 70.3111 141.264 70.4862C141.264 70.6613 141.359 70.8032 141.476 70.8032Z" fill="#FF6584"/>
<path d="M149.737 77.7777C151.609 77.7777 153.127 76.2637 153.127 74.396C153.127 72.5284 151.609 71.0144 149.737 71.0144C147.865 71.0144 146.348 72.5284 146.348 74.396C146.348 76.2637 147.865 77.7777 149.737 77.7777Z" fill="#EAEAEA"/>
<path opacity="0.2" d="M152.28 74.6074C152.28 75.2801 152.012 75.9252 151.535 76.4008C151.058 76.8765 150.412 77.1437 149.737 77.1437C149.063 77.1437 148.417 76.8765 147.94 76.4008C147.463 75.9252 147.195 75.2801 147.195 74.6074" fill="black"/>
<path opacity="0.2" d="M147.195 74.1849C147.195 73.5123 147.463 72.8672 147.94 72.3915C148.417 71.9159 149.063 71.6487 149.737 71.6487C150.412 71.6487 151.058 71.9159 151.535 72.3915C152.012 72.8672 152.28 73.5123 152.28 74.1849" fill="black"/>
<path d="M148.466 73.5508C148.583 73.5508 148.678 73.4089 148.678 73.2338C148.678 73.0587 148.583 72.9167 148.466 72.9167C148.349 72.9167 148.255 73.0587 148.255 73.2338C148.255 73.4089 148.349 73.5508 148.466 73.5508Z" fill="#EAEAEA"/>
<path d="M149.737 73.128C149.854 73.128 149.949 72.986 149.949 72.8109C149.949 72.6358 149.854 72.4939 149.737 72.4939C149.62 72.4939 149.526 72.6358 149.526 72.8109C149.526 72.986 149.62 73.128 149.737 73.128Z" fill="#EAEAEA"/>
<path d="M149.737 75.8755C149.854 75.8755 149.949 75.7336 149.949 75.5585C149.949 75.3834 149.854 75.2415 149.737 75.2415C149.62 75.2415 149.526 75.3834 149.526 75.5585C149.526 75.7336 149.62 75.8755 149.737 75.8755Z" fill="#EAEAEA"/>
<path d="M151.008 74.1848C151.125 74.1848 151.22 74.0429 151.22 73.8678C151.22 73.6927 151.125 73.5508 151.008 73.5508C150.891 73.5508 150.797 73.6927 150.797 73.8678C150.797 74.0429 150.891 74.1848 151.008 74.1848Z" fill="#EAEAEA"/>
<path d="M150.797 76.5098C150.914 76.5098 151.008 76.3679 151.008 76.1928C151.008 76.0177 150.914 75.8757 150.797 75.8757C150.68 75.8757 150.585 76.0177 150.585 76.1928C150.585 76.3679 150.68 76.5098 150.797 76.5098Z" fill="#EAEAEA"/>
<path d="M148.254 75.4529C148.371 75.4529 148.466 75.311 148.466 75.1359C148.466 74.9608 148.371 74.8188 148.254 74.8188C148.137 74.8188 148.043 74.9608 148.043 75.1359C148.043 75.311 148.137 75.4529 148.254 75.4529Z" fill="#EAEAEA"/>
<path d="M132.79 78.2005C134.662 78.2005 136.179 76.6865 136.179 74.8189C136.179 72.9513 134.662 71.4373 132.79 71.4373C130.918 71.4373 129.4 72.9513 129.4 74.8189C129.4 76.6865 130.918 78.2005 132.79 78.2005Z" fill="#EAEAEA"/>
<path opacity="0.2" d="M135.332 75.0303C135.332 75.7029 135.064 76.348 134.587 76.8237C134.111 77.2993 133.464 77.5665 132.79 77.5665C132.116 77.5665 131.469 77.2993 130.992 76.8237C130.516 76.348 130.248 75.7029 130.248 75.0303" fill="black"/>
<path opacity="0.2" d="M130.248 74.6075C130.248 73.9349 130.516 73.2898 130.992 72.8141C131.469 72.3385 132.116 72.0713 132.79 72.0713C133.464 72.0713 134.111 72.3385 134.587 72.8141C135.064 73.2898 135.332 73.9349 135.332 74.6075" fill="black"/>
<path d="M131.519 73.9734C131.636 73.9734 131.731 73.8315 131.731 73.6564C131.731 73.4813 131.636 73.3394 131.519 73.3394C131.402 73.3394 131.307 73.4813 131.307 73.6564C131.307 73.8315 131.402 73.9734 131.519 73.9734Z" fill="#EAEAEA"/>
<path d="M132.79 73.5508C132.907 73.5508 133.002 73.4089 133.002 73.2338C133.002 73.0587 132.907 72.9167 132.79 72.9167C132.673 72.9167 132.578 73.0587 132.578 73.2338C132.578 73.4089 132.673 73.5508 132.79 73.5508Z" fill="#EAEAEA"/>
<path d="M132.79 76.2984C132.907 76.2984 133.002 76.1564 133.002 75.9813C133.002 75.8062 132.907 75.6643 132.79 75.6643C132.673 75.6643 132.578 75.8062 132.578 75.9813C132.578 76.1564 132.673 76.2984 132.79 76.2984Z" fill="#EAEAEA"/>
<path d="M134.061 74.6074C134.178 74.6074 134.273 74.4655 134.273 74.2904C134.273 74.1153 134.178 73.9734 134.061 73.9734C133.944 73.9734 133.849 74.1153 133.849 74.2904C133.849 74.4655 133.944 74.6074 134.061 74.6074Z" fill="#EAEAEA"/>
<path d="M133.849 76.9324C133.966 76.9324 134.061 76.7905 134.061 76.6154C134.061 76.4403 133.966 76.2983 133.849 76.2983C133.732 76.2983 133.637 76.4403 133.637 76.6154C133.637 76.7905 133.732 76.9324 133.849 76.9324Z" fill="#EAEAEA"/>
<path d="M131.307 75.8755C131.424 75.8755 131.519 75.7336 131.519 75.5585C131.519 75.3834 131.424 75.2415 131.307 75.2415C131.19 75.2415 131.095 75.3834 131.095 75.5585C131.095 75.7336 131.19 75.8755 131.307 75.8755Z" fill="#EAEAEA"/>
<path d="M140.416 79.68C142.288 79.68 143.806 78.166 143.806 76.2984C143.806 74.4308 142.288 72.9167 140.416 72.9167C138.544 72.9167 137.027 74.4308 137.027 76.2984C137.027 78.166 138.544 79.68 140.416 79.68Z" fill="#EAEAEA"/>
<path opacity="0.2" d="M142.958 76.5098C142.958 76.8428 142.893 77.1726 142.765 77.4803C142.637 77.788 142.45 78.0676 142.214 78.3032C141.978 78.5387 141.698 78.7255 141.389 78.8529C141.081 78.9804 140.75 79.046 140.416 79.046C140.082 79.046 139.752 78.9804 139.443 78.8529C139.135 78.7255 138.855 78.5387 138.619 78.3032C138.383 78.0676 138.195 77.788 138.068 77.4803C137.94 77.1726 137.874 76.8428 137.874 76.5098" fill="black"/>
<path opacity="0.2" d="M137.874 76.087C137.874 75.7539 137.94 75.4242 138.068 75.1164C138.195 74.8087 138.383 74.5291 138.619 74.2936C138.855 74.0581 139.135 73.8713 139.443 73.7438C139.752 73.6164 140.082 73.5508 140.416 73.5508C140.75 73.5508 141.081 73.6164 141.389 73.7438C141.698 73.8713 141.978 74.0581 142.214 74.2936C142.45 74.5291 142.637 74.8087 142.765 75.1164C142.893 75.4242 142.958 75.7539 142.958 76.087" fill="black"/>
<path d="M139.145 75.4529C139.262 75.4529 139.357 75.311 139.357 75.1359C139.357 74.9608 139.262 74.8188 139.145 74.8188C139.028 74.8188 138.933 74.9608 138.933 75.1359C138.933 75.311 139.028 75.4529 139.145 75.4529Z" fill="#EAEAEA"/>
<path d="M140.416 75.0303C140.533 75.0303 140.628 74.8884 140.628 74.7133C140.628 74.5382 140.533 74.3962 140.416 74.3962C140.299 74.3962 140.204 74.5382 140.204 74.7133C140.204 74.8884 140.299 75.0303 140.416 75.0303Z" fill="#EAEAEA"/>
<path d="M140.416 77.7779C140.533 77.7779 140.628 77.6359 140.628 77.4608C140.628 77.2857 140.533 77.1438 140.416 77.1438C140.299 77.1438 140.204 77.2857 140.204 77.4608C140.204 77.6359 140.299 77.7779 140.416 77.7779Z" fill="#EAEAEA"/>
<path d="M141.687 76.0869C141.804 76.0869 141.899 75.945 141.899 75.7699C141.899 75.5948 141.804 75.4529 141.687 75.4529C141.57 75.4529 141.475 75.5948 141.475 75.7699C141.475 75.945 141.57 76.0869 141.687 76.0869Z" fill="#EAEAEA"/>
<path d="M141.476 78.4119C141.593 78.4119 141.687 78.27 141.687 78.0949C141.687 77.9198 141.593 77.7778 141.476 77.7778C141.359 77.7778 141.264 77.9198 141.264 78.0949C141.264 78.27 141.359 78.4119 141.476 78.4119Z" fill="#EAEAEA"/>
<path d="M138.933 77.355C139.05 77.355 139.145 77.2131 139.145 77.038C139.145 76.8629 139.05 76.7209 138.933 76.7209C138.816 76.7209 138.721 76.8629 138.721 77.038C138.721 77.2131 138.816 77.355 138.933 77.355Z" fill="#EAEAEA"/>
<path d="M145.712 83.2731C147.584 83.2731 149.102 81.759 149.102 79.8914C149.102 78.0238 147.584 76.5098 145.712 76.5098C143.84 76.5098 142.323 78.0238 142.323 79.8914C142.323 81.759 143.84 83.2731 145.712 83.2731Z" fill="#FF6584"/>
<path opacity="0.2" d="M148.254 80.1028C148.254 80.7754 147.987 81.4205 147.51 81.8962C147.033 82.3718 146.387 82.639 145.712 82.639C145.038 82.639 144.391 82.3718 143.915 81.8962C143.438 81.4205 143.17 80.7754 143.17 80.1028" fill="black"/>
<path opacity="0.2" d="M143.17 79.68C143.17 79.0074 143.438 78.3623 143.915 77.8866C144.391 77.411 145.038 77.1438 145.712 77.1438C146.387 77.1438 147.033 77.411 147.51 77.8866C147.987 78.3623 148.254 79.0074 148.254 79.68" fill="black"/>
<path d="M144.441 79.0459C144.558 79.0459 144.653 78.904 144.653 78.7289C144.653 78.5538 144.558 78.4119 144.441 78.4119C144.324 78.4119 144.229 78.5538 144.229 78.7289C144.229 78.904 144.324 79.0459 144.441 79.0459Z" fill="#FF6584"/>
<path d="M145.712 78.6233C145.829 78.6233 145.924 78.4814 145.924 78.3063C145.924 78.1312 145.829 77.9893 145.712 77.9893C145.595 77.9893 145.5 78.1312 145.5 78.3063C145.5 78.4814 145.595 78.6233 145.712 78.6233Z" fill="#FF6584"/>
<path d="M145.712 81.3709C145.829 81.3709 145.924 81.2289 145.924 81.0538C145.924 80.8788 145.829 80.7368 145.712 80.7368C145.595 80.7368 145.5 80.8788 145.5 81.0538C145.5 81.2289 145.595 81.3709 145.712 81.3709Z" fill="#FF6584"/>
<path d="M146.983 79.68C147.1 79.68 147.195 79.538 147.195 79.3629C147.195 79.1878 147.1 79.0459 146.983 79.0459C146.866 79.0459 146.772 79.1878 146.772 79.3629C146.772 79.538 146.866 79.68 146.983 79.68Z" fill="#FF6584"/>
<path d="M146.772 82.0049C146.889 82.0049 146.983 81.863 146.983 81.6879C146.983 81.5128 146.889 81.3708 146.772 81.3708C146.655 81.3708 146.56 81.5128 146.56 81.6879C146.56 81.863 146.655 82.0049 146.772 82.0049Z" fill="#FF6584"/>
<path d="M144.229 80.948C144.346 80.948 144.441 80.8061 144.441 80.631C144.441 80.4559 144.346 80.314 144.229 80.314C144.112 80.314 144.018 80.4559 144.018 80.631C144.018 80.8061 144.112 80.948 144.229 80.948Z" fill="#FF6584"/>
<path d="M102.124 67.8952C102.62 67.8952 103.022 67.4939 103.022 66.9989C103.022 66.5038 102.62 66.1025 102.124 66.1025C101.627 66.1025 101.225 66.5038 101.225 66.9989C101.225 67.4939 101.627 67.8952 102.124 67.8952Z" fill="#3F3D56"/>
<path d="M126.544 99.5338L104.968 93.5639L105.794 90.5007L127.371 96.4709L126.544 99.5338Z" fill="#F9A825"/>
<path d="M123.381 98.5102C115.992 99.9214 108.402 99.9214 101.013 98.5102V95.335C108.419 96.5595 115.976 96.5595 123.381 95.335V98.5102Z" fill="#F9A825"/>
<path d="M125.681 88.9845C118.292 90.3958 110.702 90.3958 103.313 88.9845V85.8093C110.718 87.0338 118.275 87.0338 125.681 85.8093V88.9845Z" fill="#F9A825"/>
<path d="M133.416 92.7946C126.027 94.2058 118.437 94.2058 111.048 92.7946V89.6194C118.453 90.8439 126.01 90.8439 133.416 89.6194V92.7946Z" fill="#F9A825"/>
<path d="M135.297 96.3933C127.908 97.8045 120.318 97.8045 112.929 96.3933V93.218C120.334 94.4425 127.891 94.4425 135.297 93.218V96.3933Z" fill="#F9A825"/>
<path d="M141.856 101.096L119.788 104.794L119.277 101.661L141.344 97.9629L141.856 101.096Z" fill="#F9A825"/>
<path d="M138.56 101.503C132.442 105.903 125.546 109.111 118.235 110.96L116.926 108.075C124.173 106.05 131.039 102.856 137.251 98.6174L138.56 101.503Z" fill="#F9A825"/>
<path d="M136.721 91.8749C130.603 96.275 123.708 99.4836 116.397 101.332L115.087 98.4473C122.334 96.4228 129.2 93.228 135.412 88.9897L136.721 91.8749Z" fill="#F9A825"/>
<path d="M145.321 92.0666C139.203 96.4666 132.307 99.6753 124.996 101.524L123.687 98.6389C130.934 96.6144 137.799 93.4196 144.012 89.1814L145.321 92.0666Z" fill="#F9A825"/>
<path d="M148.514 94.5409C142.396 98.941 135.5 102.15 128.19 103.998L126.88 101.113C134.127 99.0888 140.993 95.894 147.205 91.6558L148.514 94.5409Z" fill="#F9A825"/>
<path d="M121.774 88.3455H120.715V89.4022H121.774V88.3455Z" fill="#00BF71"/>
<path d="M124.952 106.733H123.892V107.79H124.952V106.733Z" fill="#00BF71"/>
<path d="M108.004 88.3455H106.945V89.4022H108.004V88.3455Z" fill="#00BF71"/>
<path d="M132.578 101.449H131.519V102.506H132.578V101.449Z" fill="#00BF71"/>
<path d="M133.214 95.3201H132.154V96.3768H133.214V95.3201Z" fill="#00BF71"/>
<path d="M115.741 92.4266L114.513 91.5959L114.038 92.2955L115.265 93.1262L115.741 92.4266Z" fill="#00BF71"/>
<path d="M128.239 94.7515L127.012 93.9209L126.536 94.6205L127.764 95.4511L128.239 94.7515Z" fill="#00BF71"/>
<path d="M112.987 98.7672L111.759 97.9365L111.284 98.6361L112.511 99.4668L112.987 98.7672Z" fill="#00BF71"/>
<path d="M120.755 98.7057L121.588 97.4814L120.886 97.0068L120.054 98.2311L120.755 98.7057Z" fill="#00BF71"/>
<path d="M126.475 100.185L127.307 98.9609L126.606 98.4863L125.774 99.7106L126.475 100.185Z" fill="#00BF71"/>
<path d="M141.729 95.1125L142.562 93.8882L141.86 93.4135L141.028 94.6378L141.729 95.1125Z" fill="#00BF71"/>
<path d="M242 131.391H0V132H242V131.391Z" fill="#3F3D56"/>
</g>
<defs>
<clipPath id="clip0_161_3112">
<rect width="242" height="132" fill="white"/>
</clipPath>
</defs>
</svg>
